<svg xmlns="http://www.w3.org/2000/svg">
<defs>
<font id="CQMono" horiz-adv-x="1000" >
  <font-face 
    font-family="CQ Mono"
    font-weight="400"
    font-stretch="normal"
    units-per-em="2048"
    panose-1="2 0 5 0 0 0 0 0 0 0"
    ascent="1638"
    descent="-410"
    x-height="996"
    cap-height="1400"
    bbox="-20.6129 -400 857.833 1810.33"
    underline-thickness="150"
    underline-position="-142"
    unicode-range="U+001D-2248"
  />
<missing-glyph 
d="M388 1096h18q192 0 324 -172q71 -107 71 -218v-23q0 -180 -165 -315q-112 -73 -223 -73h-18q-192 0 -324 172q-71 107 -71 218v23q0 180 165 315q112 73 223 73zM55 800h2q395 -2 622 -2h67q-54 151 -168 208q-79 49 -169 49h-19q-154 0 -268 -131q-51 -65 -67 -124z
M381 1013q14 -16 16 -16l18 16q3 0 19 -18q-4 0 -16 -16v-2q0 -4 16 -16q0 3 16 16h2q4 0 16 -16v-3q0 -3 -16 -16h-2l-19 16q0 -1 -13 -16q16 -17 16 -20l-19 -16l-18 16l-18 -16l-16 18l16 18l-16 16l-19 -16q-3 0 -18 19l18 16l19 -16l16 18q-4 0 -16 16q0 3 18 18z
M397 995l-16 -18l18 -16q0 1 14 16v2q0 3 -16 16zM397 958l-16 -18l16 -14q3 0 16 16q0 4 -16 16zM184 873h6l17 -4v-5l-5 -7q-13 3 -18 3q-10 -3 -10 -14q0 -10 12 -14q15 5 16 5l7 -10q-8 -5 -21 -9q-30 5 -30 28q5 27 26 27zM213 873h12q5 0 5 -4v-16h16v20h16v-52h-16
v18h-16v-18h-17v52zM273 873h37v-13h-25v-7h25v-9q0 -5 -5 -5l-4 2l-5 -2l-11 2v-7h23q4 0 4 -4v-9h-43v48q0 4 4 4zM344 873q30 -4 30 -25l-4 -18q4 -1 4 -5q0 -3 -9 -9l-7 5q-13 -3 -18 -3q-19 0 -26 28q0 27 30 27zM383 873h7q5 0 5 -4v-23q1 -14 7 -14h4q4 0 7 7v30l2 4
l5 -2h2l5 2l2 -4v-28q-3 -23 -23 -23h-4q-21 0 -23 28v23q0 4 4 4zM438 873h5l14 -2q4 2 7 2q4 -2 7 -2q4 2 6 2v-11q0 -5 -4 -5q-4 3 -9 3v-3l-5 3h-7v-7h25v-9q0 -5 -4 -5h-21v-7h7q2 0 2 2l5 -2h5q2 0 2 2q4 -2 7 -2v-11h-12l-14 -3q-3 3 -11 3v-3q-4 3 -7 3v41zM489 873
l16 -2v2q27 -3 27 -18q-1 -16 -11 -16l14 -18l-5 -3h-9q-2 0 -18 19h-3v-10l3 -4l-5 -2h-14v2q0 4 3 4l-3 17l3 22h-3q3 7 5 7zM539 871h42v-9q0 -5 -5 -5h-21v-4h23v-14h-23v-7h26v-9q0 -5 -5 -5h-32q-5 0 -5 5v48zM588 871h27q21 0 23 -27q0 -24 -37 -26h-9q-4 0 -4 5v48z

<glyph glyph-name=".notdef" 
d="M388 1096h18q192 0 324 -172q71 -107 71 -218v-23q0 -180 -165 -315q-112 -73 -223 -73h-18q-192 0 -324 172q-71 107 -71 218v23q0 180 165 315q112 73 223 73zM55 800h2q395 -2 622 -2h67q-54 151 -168 208q-79 49 -169 49h-19q-154 0 -268 -131q-51 -65 -67 -124z
M381 1013q14 -16 16 -16l18 16q3 0 19 -18q-4 0 -16 -16v-2q0 -4 16 -16q0 3 16 16h2q4 0 16 -16v-3q0 -3 -16 -16h-2l-19 16q0 -1 -13 -16q16 -17 16 -20l-19 -16l-18 16l-18 -16l-16 18l16 18l-16 16l-19 -16q-3 0 -18 19l18 16l19 -16l16 18q-4 0 -16 16q0 3 18 18z
M397 995l-16 -18l18 -16q0 1 14 16v2q0 3 -16 16zM397 958l-16 -18l16 -14q3 0 16 16q0 4 -16 16zM184 873h6l17 -4v-5l-5 -7q-13 3 -18 3q-10 -3 -10 -14q0 -10 12 -14q15 5 16 5l7 -10q-8 -5 -21 -9q-30 5 -30 28q5 27 26 27zM213 873h12q5 0 5 -4v-16h16v20h16v-52h-16
v18h-16v-18h-17v52zM273 873h37v-13h-25v-7h25v-9q0 -5 -5 -5l-4 2l-5 -2l-11 2v-7h23q4 0 4 -4v-9h-43v48q0 4 4 4zM344 873q30 -4 30 -25l-4 -18q4 -1 4 -5q0 -3 -9 -9l-7 5q-13 -3 -18 -3q-19 0 -26 28q0 27 30 27zM383 873h7q5 0 5 -4v-23q1 -14 7 -14h4q4 0 7 7v30l2 4
l5 -2h2l5 2l2 -4v-28q-3 -23 -23 -23h-4q-21 0 -23 28v23q0 4 4 4zM438 873h5l14 -2q4 2 7 2q4 -2 7 -2q4 2 6 2v-11q0 -5 -4 -5q-4 3 -9 3v-3l-5 3h-7v-7h25v-9q0 -5 -4 -5h-21v-7h7q2 0 2 2l5 -2h5q2 0 2 2q4 -2 7 -2v-11h-12l-14 -3q-3 3 -11 3v-3q-4 3 -7 3v41zM489 873
l16 -2v2q27 -3 27 -18q-1 -16 -11 -16l14 -18l-5 -3h-9q-2 0 -18 19h-3v-10l3 -4l-5 -2h-14v2q0 4 3 4l-3 17l3 22h-3q3 7 5 7zM539 871h42v-9q0 -5 -5 -5h-21v-4h23v-14h-23v-7h26v-9q0 -5 -5 -5h-32q-5 0 -5 5v48zM588 871h27q21 0 23 -27q0 -24 -37 -26h-9q-4 0 -4 5v48z
M330 844q4 -12 17 -12q11 3 11 16q-4 11 -9 12h-9q-10 -4 -10 -16zM500 860v-12h12q4 0 4 5v2q0 5 -4 5h-12zM604 857v-25h2q12 0 16 9v9q0 4 -7 7h-11zM119 685v-4q8 -39 37 -39h23q11 5 11 18v9q-9 0 -9 12q0 23 44 23q0 2 9 4v-2q-43 -142 -55 -145h-5q-5 0 -6 12
q0 4 11 25q-12 21 -30 21h-7q-36 -5 -36 -37v-5q0 -33 41 -48q12 -2 23 -2h9q72 0 94 98q14 31 48 131q-11 7 -30 7h-13q-18 0 -35 -20q-29 -13 -89 -21q-35 -12 -35 -37zM457 559l-3 5v6q0 11 19 78q-6 23 -25 23h-17q-9 0 -36 -11v5l2 4q-9 5 -25 5h-23q-21 0 -28 -26
q-36 -113 -36 -119q13 -7 39 -7q34 0 34 35q23 75 32 75q7 0 7 3q9 -4 9 -7q-20 -54 -20 -71v-5q0 -23 32 -27q23 0 62 20l-5 -14q9 -9 32 -9q39 0 39 19q13 91 44 91h7q4 0 4 -4v-3q0 -15 -30 -29l-2 -12q0 -59 48 -59q50 0 83 61l-9 7h-5q-20 -34 -46 -34h-4q-14 6 -14 21
v9l32 20q12 22 12 33v4q0 24 -35 28q-9 0 -48 -14q0 2 -2 2q34 89 34 92q-11 7 -34 7h-21q-17 0 -23 -39q-6 -7 -46 -136q-26 -27 -34 -27zM119 474v-2q117 -136 273 -136h19q144 0 257 117q14 16 14 19q-289 2 -430 2h-133zM296 435h23v-5h-18v-11h18v-5h-18v-9h16
q4 -1 4 -4h-25v34zM333 435h11q4 0 7 -7h-2l-14 2q-5 0 -5 -4v-5q23 -2 23 -11q-3 -12 -16 -12q-13 5 -13 9l4 3q0 -5 12 -7l9 4q0 7 -23 12v9q0 3 7 7zM353 435h28v-5h-11v-29h-5v29h-12v5zM411 435q7 0 14 -9q0 -11 -23 -14l-3 -5q1 -4 5 -4h18v-5h-16l-11 3v2q0 16 16 16
h7q0 2 2 7l-7 4h-7l-9 -6v4q2 7 14 7zM443 435h2q4 0 9 -9v-19q-3 -9 -16 -9q-11 3 -11 16v5q0 16 16 16zM471 435v-32h6q0 -5 -4 -5h-12v5h5v25h-5v5q5 0 10 2zM482 435h21q4 -1 4 -5h-20v-9h13q5 -1 10 -11q-4 -12 -17 -12q-11 2 -11 7v5l9 -7h7q3 0 7 7q0 3 -7 7h-16v18z
M431 424v-14q0 -4 7 -7h5q3 0 7 7v14q0 3 -7 6h-5q-3 0 -7 -6z" />
    <glyph glyph-name=".null" horiz-adv-x="0" 
 />
    <glyph glyph-name=".null" horiz-adv-x="0" 
 />
    <glyph glyph-name="nonmarkingreturn" horiz-adv-x="508" 
 />
    <glyph glyph-name="space" unicode=" " 
 />
    <glyph glyph-name="space" unicode="&#xa0;" 
 />
    <glyph glyph-name="exclam" unicode="!" 
d="M500 500q0 -41 -29.5 -70.5t-70.5 -29.5t-70.5 29.5t-29.5 70.5v800q0 41 29.5 70.5t70.5 29.5t70.5 -29.5t29.5 -70.5v-800zM300 100q0 41 29.5 70.5t70.5 29.5t70.5 -29.5t29.5 -70.5t-29.5 -70.5t-70.5 -29.5t-70.5 29.5t-29.5 70.5z" />
    <glyph glyph-name="quotedbl" unicode="&#x22;" 
d="M150 1300q0 41 29.5 70.5t70.5 29.5t70.5 -29.5t29.5 -70.5v-200q0 -41 -29.5 -70.5t-70.5 -29.5t-70.5 29.5t-29.5 70.5v200zM450 1300q0 41 29.5 70.5t70.5 29.5t70.5 -29.5t29.5 -70.5v-200q0 -41 -29.5 -70.5t-70.5 -29.5t-70.5 29.5t-29.5 70.5v200z" />
    <glyph glyph-name="numbersign" unicode="#" 
d="M650 400h50q41 0 70.5 -29.5t29.5 -70.5t-29.5 -70.5t-70.5 -29.5h-50v-100q0 -41 -29.5 -70.5t-70.5 -29.5t-70.5 29.5t-29.5 70.5v100h-100v-100q0 -41 -29.5 -70.5t-70.5 -29.5t-70.5 29.5t-29.5 70.5v100h-50q-41 0 -70.5 29.5t-29.5 70.5t29.5 70.5t70.5 29.5h50
v600h-50q-41 0 -70.5 29.5t-29.5 70.5t29.5 70.5t70.5 29.5h50v100q0 41 29.5 70.5t70.5 29.5t70.5 -29.5t29.5 -70.5v-100h100v100q0 41 29.5 70.5t70.5 29.5t70.5 -29.5t29.5 -70.5v-100h50q41 0 70.5 -29.5t29.5 -70.5t-29.5 -70.5t-70.5 -29.5h-50v-600zM350 1000v-600
h100v600h-100z" />
    <glyph glyph-name="dollar" unicode="$" 
d="M500 574v-345q24 12 42 30q58 58 58 141t-58 142q-20 19 -42 32zM300 612q-103 25 -183 105q-117 117 -117 283t117 283q72 72 183 100v117q0 41 29.5 70.5t70.5 29.5t70.5 -29.5t29.5 -70.5v-102q161 -13 263 -115l-1 -1q1 0 3 -1q29 -30 29 -71t-29.5 -70.5
t-70.5 -29.5t-70 30q-1 0 -2 1q-45 45 -122 56v-409q103 -25 183 -105q117 -117 117 -283t-117 -283q-72 -72 -183 -100v-117q0 -41 -29.5 -70.5t-70.5 -29.5t-70.5 29.5t-29.5 70.5v102q-161 13 -263 115l1 1q-1 0 -2 2q-30 29 -30 70t29.5 70.5t70.5 29.5t71 -29
q0 -1 1 -2q45 -45 122 -56v409zM300 826v345q-24 -12 -41 -29q-59 -59 -59 -142t59 -141q19 -20 41 -33z" />
    <glyph glyph-name="percent" unicode="%" 
d="M781 1238l-591 -1182q-7 -14 -19 -26q-30 -30 -71 -30t-70.5 29.5t-29.5 70.5q0 34 20 60l-1 2l591 1182q7 14 20 27q29 29 70 29t70.5 -29.5t29.5 -70.5q0 -34 -20 -60zM256 1356q44 -44 44 -106t-44 -106t-106 -44t-106 44t-44 106t44 106t106 44t106 -44zM756 256
q44 -44 44 -106t-44 -106t-106 -44t-106 44t-44 106t44 106t106 44t106 -44z" />
    <glyph glyph-name="ampersand" unicode="&#x26;" 
d="M400 800h200v61q0 41 29.5 70.5t70.5 29.5t70.5 -29.5t29.5 -70.5v-661q-6 -51 -35 -80q-2 -2 -3 -2l1 -1q-117 -117 -313 -117q-216 0 -333 117t-117 283t117 283q9 9 18 17q-9 8 -18 17q-117 117 -117 283t117 283t333 117q196 0 313 -117l-1 -1q1 0 3 -1
q29 -30 29 -71t-29.5 -70.5t-70.5 -29.5t-70 30q-1 0 -2 1q-59 59 -172 59q-133 0 -191.5 -58.5t-58.5 -141.5t58.5 -141.5t141.5 -58.5zM600 600h-200q-83 0 -141.5 -58.5t-58.5 -141.5t58.5 -141.5t191.5 -58.5q93 0 150 40v360z" />
    <glyph glyph-name="quotesingle" unicode="'" 
d="M300 1300q0 41 29.5 70.5t70.5 29.5t70.5 -29.5t29.5 -70.5v-200q0 -41 -29.5 -70.5t-70.5 -29.5t-70.5 29.5t-29.5 70.5v200z" />
    <glyph glyph-name="parenleft" unicode="(" 
d="M550 1600q41 0 70.5 -29.5t29.5 -70.5t-29.5 -70.5t-70.5 -29.5q-83 0 -141.5 -58.5t-58.5 -141.5v-1000q0 -83 58.5 -141.5t141.5 -58.5q41 0 70.5 -29.5t29.5 -70.5t-29.5 -70.5t-70.5 -29.5q-166 0 -283 117t-117 283v1000q0 166 117 283t283 117z" />
    <glyph glyph-name="parenright" unicode=")" 
d="M250 1400q-41 0 -70.5 29.5t-29.5 70.5t29.5 70.5t70.5 29.5q166 0 283 -117t117 -283v-1000q0 -166 -117 -283t-283 -117q-41 0 -70.5 29.5t-29.5 70.5t29.5 70.5t70.5 29.5q83 0 141.5 58.5t58.5 141.5v1000q0 83 -58.5 141.5t-141.5 58.5z" />
    <glyph glyph-name="asterisk" unicode="*" 
d="M500 826v-126q0 -41 -29.5 -70.5t-70.5 -29.5t-70.5 29.5t-29.5 70.5v126l-110 -63q-35 -20 -75.5 -9.5t-60.5 46.5q-21 36 -10 76t46 61l109 63l-109 63q-35 21 -46 61t10 76q20 36 60.5 46.5t75.5 -9.5l110 -63v126q0 41 29.5 70.5t70.5 29.5t70.5 -29.5t29.5 -70.5
v-126l110 63q35 20 75.5 9.5t60.5 -46.5q21 -36 10 -76t-46 -61l-109 -63l109 -63q35 -21 46 -61t-10 -76q-20 -36 -60.5 -46.5t-75.5 9.5z" />
    <glyph glyph-name="plus" unicode="+" 
d="M300 600h-200q-41 0 -70.5 29.5t-29.5 70.5t29.5 70.5t70.5 29.5h200v200q0 41 29.5 70.5t70.5 29.5t70.5 -29.5t29.5 -70.5v-200h200q41 0 70.5 -29.5t29.5 -70.5t-29.5 -70.5t-70.5 -29.5h-200v-200q0 -41 -29.5 -70.5t-70.5 -29.5t-70.5 29.5t-29.5 70.5v200z" />
    <glyph glyph-name="comma" unicode="," 
d="M300 100q0 41 29.5 70.5t70.5 29.5t70.5 -29.5t29.5 -70.5v-200q0 -41 -29.5 -70.5t-70.5 -29.5t-70.5 29.5t-29.5 70.5v200z" />
    <glyph glyph-name="hyphen" unicode="-" 
d="M200 600q-41 0 -70.5 29.5t-29.5 70.5t29.5 70.5t70.5 29.5h400q41 0 70.5 -29.5t29.5 -70.5t-29.5 -70.5t-70.5 -29.5h-400z" />
    <glyph glyph-name="hyphen" unicode="&#xad;" 
d="M200 600q-41 0 -70.5 29.5t-29.5 70.5t29.5 70.5t70.5 29.5h400q41 0 70.5 -29.5t29.5 -70.5t-29.5 -70.5t-70.5 -29.5h-400z" />
    <glyph glyph-name="period" unicode="." 
d="M506 256q44 -44 44 -106t-44 -106t-106 -44t-106 44t-44 106t44 106t106 44t106 -44z" />
    <glyph glyph-name="slash" unicode="/" 
d="M781 1238l-591 -1182q-7 -14 -19 -26q-30 -30 -71 -30t-70.5 29.5t-29.5 70.5q0 34 20 60l-1 2l591 1182q7 14 20 27q29 29 70 29t70.5 -29.5t29.5 -70.5q0 -34 -20 -60z" />
    <glyph glyph-name="zero" unicode="0" 
d="M0 1000q0 166 117 283t283 117t283 -117t117 -283v-600q0 -166 -117 -283t-283 -117t-283 117t-117 283v600zM500 700q0 -41 -29.5 -70.5t-70.5 -29.5t-70.5 29.5t-29.5 70.5t29.5 70.5t70.5 29.5t70.5 -29.5t29.5 -70.5zM600 1000q0 83 -58.5 141.5t-141.5 58.5
t-141.5 -58.5t-58.5 -141.5v-600q0 -83 58.5 -141.5t141.5 -58.5t141.5 58.5t58.5 141.5v600z" />
    <glyph glyph-name="one" unicode="1" 
d="M700 200q41 0 70.5 -29.5t29.5 -70.5t-29.5 -70.5t-70.5 -29.5h-600q-41 0 -70.5 29.5t-29.5 70.5t29.5 70.5t70.5 29.5h200v1000h-200q-41 0 -70.5 29.5t-29.5 70.5t29.5 70.5t70.5 29.5h300q41 0 70.5 -29.5t29.5 -70.5v-1100h200z" />
    <glyph glyph-name="two" unicode="2" 
d="M600 1000q0 83 -58.5 141.5t-191.5 58.5q-113 0 -172 -59l-1 -1q-30 -30 -71 -30t-70.5 29.5t-29.5 70.5t30 71q1 1 2 1l-1 1q117 117 313 117q216 0 333 -117t117 -283t-117 -283t-283 -117q-83 0 -141.5 -58.5t-58.5 -141.5v-200h400v100q0 41 29.5 70.5t70.5 29.5
t70.5 -29.5t29.5 -70.5v-200q0 -41 -29.5 -70.5t-70.5 -29.5h-600q-41 0 -70.5 29.5t-29.5 70.5v300q0 166 117 283t283 117q83 0 141.5 58.5t58.5 141.5z" />
    <glyph glyph-name="three" unicode="3" 
d="M400 600h-100q-41 0 -70.5 29.5t-29.5 70.5t29.5 70.5t70.5 29.5h100q83 0 141.5 58.5t58.5 141.5t-58.5 141.5t-191.5 58.5q-113 0 -172 -59l-1 -1q-30 -30 -71 -30t-70.5 29.5t-29.5 70.5t30 71q1 1 2 1l-1 1q117 117 313 117q216 0 333 -117t117 -283t-117 -283
q-9 -9 -18 -17q9 -8 18 -17q117 -117 117 -283t-117 -283t-333 -117q-196 0 -313 117l1 1q-1 0 -2 2q-30 29 -30 70t29.5 70.5t70.5 29.5t71 -29q0 -1 1 -2q59 -59 172 -59q133 0 191.5 58.5t58.5 141.5t-58.5 141.5t-141.5 58.5z" />
    <glyph glyph-name="four" unicode="4" 
d="M0 1300q0 41 29.5 70.5t70.5 29.5t70.5 -29.5t29.5 -70.5v-500h400v500q0 41 29.5 70.5t70.5 29.5t70.5 -29.5t29.5 -70.5v-1200q0 -41 -29.5 -70.5t-70.5 -29.5t-70.5 29.5t-29.5 70.5v500h-500q-41 0 -70.5 29.5t-29.5 70.5v600z" />
    <glyph glyph-name="five" unicode="5" 
d="M800 1100q0 -41 -29.5 -70.5t-70.5 -29.5t-70.5 29.5t-29.5 70.5v100h-400v-400h200q166 0 283 -117t117 -283t-117 -283t-333 -117q-196 0 -313 117l1 1q-1 0 -2 2q-30 29 -30 70t29.5 70.5t70.5 29.5t71 -29q0 -1 1 -2q59 -59 172 -59q133 0 191.5 58.5t58.5 141.5
t-58.5 141.5t-141.5 58.5h-300q-41 0 -70.5 29.5t-29.5 70.5v600q0 41 29.5 70.5t70.5 29.5h600q41 0 70.5 -29.5t29.5 -70.5v-200z" />
    <glyph glyph-name="six" unicode="6" 
d="M800 400q0 -166 -117 -283t-283 -117t-283 117t-117 283v600q0 166 117 283t333 117q196 0 313 -117l-1 -1q1 0 3 -1q29 -30 29 -71t-29.5 -70.5t-70.5 -29.5t-70 30q-1 0 -2 1q-59 59 -172 59q-133 0 -191.5 -58.5t-58.5 -141.5v-152q89 52 200 52q166 0 283 -117
t117 -283v-100zM200 400q0 -83 58.5 -141.5t141.5 -58.5t141.5 58.5t58.5 141.5v100q0 83 -58.5 141.5t-141.5 58.5t-141.5 -58.5t-58.5 -141.5v-100z" />
    <glyph glyph-name="seven" unicode="7" 
d="M700 1400q41 0 70.5 -29.5t29.5 -70.5q0 -34 -20 -60l1 -2l-591 -1182q-7 -14 -19 -26q-30 -30 -71 -30t-70.5 29.5t-29.5 70.5q0 34 20 60l-1 2l519 1038h-438q-41 0 -70.5 29.5t-29.5 70.5t29.5 70.5t70.5 29.5h600z" />
    <glyph glyph-name="eight" unicode="8" 
d="M400 600q-83 0 -141.5 -58.5t-58.5 -141.5t58.5 -141.5t141.5 -58.5t141.5 58.5t58.5 141.5t-58.5 141.5t-141.5 58.5zM400 1400q166 0 283 -117t117 -283t-117 -283q-9 -9 -18 -17q9 -8 18 -17q117 -117 117 -283t-117 -283t-283 -117t-283 117t-117 283t117 283
q9 9 18 17q-9 8 -18 17q-117 117 -117 283t117 283t283 117zM400 800q83 0 141.5 58.5t58.5 141.5t-58.5 141.5t-141.5 58.5t-141.5 -58.5t-58.5 -141.5t58.5 -141.5t141.5 -58.5z" />
    <glyph glyph-name="nine" unicode="9" 
d="M0 1000q0 166 117 283t283 117t283 -117t117 -283v-600q0 -166 -117 -283t-333 -117q-196 0 -313 117l1 1q-1 0 -2 2q-30 29 -30 70t29.5 70.5t70.5 29.5t71 -29q0 -1 1 -2q59 -59 172 -59q133 0 191.5 58.5t58.5 141.5v152q-89 -52 -200 -52q-166 0 -283 117t-117 283
v100zM600 1000q0 83 -58.5 141.5t-141.5 58.5t-141.5 -58.5t-58.5 -141.5v-100q0 -83 58.5 -141.5t141.5 -58.5t141.5 58.5t58.5 141.5v100z" />
    <glyph glyph-name="colon" unicode=":" 
d="M506 256q44 -44 44 -106t-44 -106t-106 -44t-106 44t-44 106t44 106t106 44t106 -44zM506 980q44 -44 44 -106t-44 -106t-106 -44t-106 44t-44 106t44 106t106 44t106 -44z" />
    <glyph glyph-name="semicolon" unicode=";" 
d="M506 980q44 -44 44 -106t-44 -106t-106 -44t-106 44t-44 106t44 106t106 44t106 -44zM360 136q20 36 60 47.5t76 -8.5q36 -19 48 -59.5t-8 -75.5l-96 -176q-20 -36 -60 -47.5t-76 8.5q-36 19 -48 59.5t8 75.5z" />
    <glyph glyph-name="semicolon" unicode="&#x37e;" 
d="M506 980q44 -44 44 -106t-44 -106t-106 -44t-106 44t-44 106t44 106t106 44t106 -44zM360 136q20 36 60 47.5t76 -8.5q36 -19 48 -59.5t-8 -75.5l-96 -176q-20 -36 -60 -47.5t-76 8.5q-36 19 -48 59.5t8 75.5z" />
    <glyph glyph-name="less" unicode="&#x3c;" 
d="M738 478q32 -10 50 -45.5t10 -75.5q-8 -39 -36 -61t-60 -13l-637 275q-32 20 -49.5 50.5t-12.5 70.5v38q-5 40 12.5 70.5t49.5 50.5l637 275q32 9 60.5 -13t36.5 -61q7 -40 -10.5 -75.5t-49.5 -45.5l-496 -220z" />
    <glyph glyph-name="equal" unicode="=" 
d="M100 800q-41 0 -70.5 29.5t-29.5 70.5t29.5 70.5t70.5 29.5h600q41 0 70.5 -29.5t29.5 -70.5t-29.5 -70.5t-70.5 -29.5h-600zM100 400q-41 0 -70.5 29.5t-29.5 70.5t29.5 70.5t70.5 29.5h600q41 0 70.5 -29.5t29.5 -70.5t-29.5 -70.5t-70.5 -29.5h-600z" />
    <glyph glyph-name="greater" unicode="&#x3e;" 
d="M65 918q-32 10 -49.5 45.5t-10.5 75.5q8 39 36.5 61t60.5 13l637 -275q32 -20 49.5 -50.5t12.5 -70.5v-38q5 -40 -12.5 -70.5t-49.5 -50.5l-637 -275q-33 -9 -61 13t-36 61q-8 40 10 75.5t50 45.5l496 220z" />
    <glyph glyph-name="question" unicode="?" 
d="M500 100q0 -41 -29.5 -70.5t-70.5 -29.5t-70.5 29.5t-29.5 70.5t29.5 70.5t70.5 29.5t70.5 -29.5t29.5 -70.5zM600 1000q0 83 -58.5 141.5t-191.5 58.5q-113 0 -172 -59l-1 -1q-30 -30 -71 -30t-70.5 29.5t-29.5 70.5t30 71q1 1 2 1l-1 1q117 117 313 117q216 0 333 -117
t117 -283t-117 -283q-80 -80 -183 -105v-112q0 -41 -29.5 -70.5t-70.5 -29.5t-70.5 29.5t-29.5 70.5v200q0 41 29.5 70.5t70.5 29.5q83 0 141.5 58.5t58.5 141.5z" />
    <glyph glyph-name="at" unicode="@" 
d="M600 600v200q-41 0 -70.5 -29.5t-29.5 -70.5t29.5 -70.5t70.5 -29.5zM200 400q0 -83 58.5 -141.5t191.5 -58.5q113 0 172 59l2 2q29 29 70 29t70.5 -29.5t29.5 -70.5t-29 -70q-2 -2 -3 -2l1 -1q-117 -117 -313 -117q-216 0 -333 117t-117 283v600q0 166 117 283t283 117
t283 -117t117 -283v-500q0 -41 -29.5 -70.5t-70.5 -29.5h-100q-124 0 -212 88t-88 212t88 212t212 88q0 83 -58.5 141.5t-141.5 58.5t-141.5 -58.5t-58.5 -141.5v-600z" />
    <glyph glyph-name="A" unicode="A" 
d="M206 200l-29 -123q-10 -40 -45.5 -62t-75.5 -13q-39 10 -61 45.5t-13 75.5l278 1196q10 40 45.5 62t75.5 16h38q40 6 75.5 -16t45.5 -62l278 -1196q9 -40 -13 -75.5t-61 -45.5q-40 -9 -75.5 13t-45.5 62l-29 123h-388zM252 400h296l-148 636z" />
    <glyph glyph-name="B" unicode="B" 
d="M0 1300q0 41 29.5 70.5t70.5 29.5h300q166 0 283 -117t117 -283t-117 -283q-9 -9 -18 -17q9 -8 18 -17q117 -117 117 -283t-117 -283t-283 -117h-300q-41 0 -70.5 29.5t-29.5 70.5v1200zM200 1200v-400h200q83 0 141.5 58.5t58.5 141.5t-58.5 141.5t-141.5 58.5h-200z
M200 600v-400h200q83 0 141.5 58.5t58.5 141.5t-58.5 141.5t-141.5 58.5h-200z" />
    <glyph glyph-name="C" unicode="C" 
d="M200 400q0 -83 58.5 -141.5t191.5 -58.5q113 0 172 59l2 2q29 29 70 29t70.5 -29.5t29.5 -70.5t-29 -70q-2 -2 -3 -2l1 -1q-117 -117 -313 -117q-216 0 -333 117t-117 283v600q0 166 117 283t333 117q196 0 313 -117l-1 -1q1 0 3 -1q29 -30 29 -71t-29.5 -70.5
t-70.5 -29.5t-70 30q-1 0 -2 1q-59 59 -172 59q-133 0 -191.5 -58.5t-58.5 -141.5v-600z" />
    <glyph glyph-name="D" unicode="D" 
d="M400 1400q166 0 283 -117t117 -283v-600q0 -166 -117 -283t-283 -117h-300q-41 0 -70.5 29.5t-29.5 70.5v1200q0 41 29.5 70.5t70.5 29.5h300zM600 1000q0 83 -58.5 141.5t-141.5 58.5h-200v-1000h200q83 0 141.5 58.5t58.5 141.5v600z" />
    <glyph glyph-name="E" unicode="E" 
d="M700 1400q41 0 70.5 -29.5t29.5 -70.5t-29.5 -70.5t-70.5 -29.5h-500v-400h400q41 0 70.5 -29.5t29.5 -70.5t-29.5 -70.5t-70.5 -29.5h-400v-400h500q41 0 70.5 -29.5t29.5 -70.5t-29.5 -70.5t-70.5 -29.5h-600q-41 0 -70.5 29.5t-29.5 70.5v1200q0 41 29.5 70.5
t70.5 29.5h600z" />
    <glyph glyph-name="F" unicode="F" 
d="M700 1400q41 0 70.5 -29.5t29.5 -70.5t-29.5 -70.5t-70.5 -29.5h-500v-400h400q41 0 70.5 -29.5t29.5 -70.5t-29.5 -70.5t-70.5 -29.5h-400v-500q0 -41 -29.5 -70.5t-70.5 -29.5t-70.5 29.5t-29.5 70.5v1200q0 41 29.5 70.5t70.5 29.5h600z" />
    <glyph glyph-name="G" unicode="G" 
d="M500 600q-41 0 -70.5 29.5t-29.5 70.5t29.5 70.5t70.5 29.5h200q41 0 70.5 -29.5t29.5 -70.5v-300q0 -166 -117 -283t-283 -117t-283 117t-117 283v600q0 166 117 283t333 117q196 0 313 -117l-1 -1q1 0 3 -1q29 -30 29 -71t-29.5 -70.5t-70.5 -29.5t-70 30q-1 0 -2 1
q-59 59 -172 59q-133 0 -191.5 -58.5t-58.5 -141.5v-600q0 -83 58.5 -141.5t141.5 -58.5t141.5 58.5t58.5 141.5v200h-100z" />
    <glyph glyph-name="H" unicode="H" 
d="M200 100q0 -41 -29.5 -70.5t-70.5 -29.5t-70.5 29.5t-29.5 70.5v1200q0 41 29.5 70.5t70.5 29.5t70.5 -29.5t29.5 -70.5v-500h400v500q0 41 29.5 70.5t70.5 29.5t70.5 -29.5t29.5 -70.5v-1200q0 -41 -29.5 -70.5t-70.5 -29.5t-70.5 29.5t-29.5 70.5v500h-400v-500z" />
    <glyph glyph-name="I" unicode="I" 
d="M700 200q41 0 70.5 -29.5t29.5 -70.5t-29.5 -70.5t-70.5 -29.5h-600q-41 0 -70.5 29.5t-29.5 70.5t29.5 70.5t70.5 29.5h200v1000h-200q-41 0 -70.5 29.5t-29.5 70.5t29.5 70.5t70.5 29.5h600q41 0 70.5 -29.5t29.5 -70.5t-29.5 -70.5t-70.5 -29.5h-200v-1000h200z" />
    <glyph glyph-name="J" unicode="J" 
d="M600 1300q0 41 29.5 70.5t70.5 29.5t70.5 -29.5t29.5 -70.5v-900q0 -166 -117 -283t-333 -117q-196 0 -313 117l1 1q-1 0 -2 2q-30 29 -30 70t29.5 70.5t70.5 29.5t71 -29q0 -1 1 -2q59 -59 172 -59q133 0 191.5 58.5t58.5 141.5v900z" />
    <glyph glyph-name="K" unicode="K" 
d="M338 800l272 544q7 14 20 27q29 29 70 29t70.5 -29.5t29.5 -70.5q0 -34 -20 -60l1 -2l-269 -538l269 -538l-1 -2q20 -26 20 -60q0 -41 -29.5 -70.5t-70.5 -29.5t-70 30q-13 12 -20 26l-272 544h-138v-500q0 -41 -29.5 -70.5t-70.5 -29.5t-70.5 29.5t-29.5 70.5v1200
q0 41 29.5 70.5t70.5 29.5t70.5 -29.5t29.5 -70.5v-500h138z" />
    <glyph glyph-name="L" unicode="L" 
d="M700 200q41 0 70.5 -29.5t29.5 -70.5t-29.5 -70.5t-70.5 -29.5h-600q-41 0 -70.5 29.5t-29.5 70.5v1200q0 41 29.5 70.5t70.5 29.5t70.5 -29.5t29.5 -70.5v-1100h500z" />
    <glyph glyph-name="M" unicode="M" 
d="M200 100q0 -41 -29.5 -70.5t-70.5 -29.5t-70.5 29.5t-29.5 70.5v1200q0 41 29.5 70.5t70.5 29.5t71 -29q12 -13 19 -27l210 -420l210 420q7 14 20 27q29 29 70 29t70.5 -29.5t29.5 -70.5v-1200q0 -41 -29.5 -70.5t-70.5 -29.5t-70.5 29.5t-29.5 70.5v776l-88 -176
l-112 -224l-112 224l-88 176v-776z" />
    <glyph glyph-name="N" unicode="N" 
d="M200 100q0 -41 -29.5 -70.5t-70.5 -29.5t-70.5 29.5t-29.5 70.5v1200q0 41 29.5 70.5t70.5 29.5t71 -29q12 -13 19 -27l410 -820v776q0 41 29.5 70.5t70.5 29.5t70.5 -29.5t29.5 -70.5v-1200q0 -41 -29.5 -70.5t-70.5 -29.5t-70 30q-13 12 -20 26l-410 820v-776z" />
    <glyph glyph-name="O" unicode="O" 
d="M0 1000q0 166 117 283t283 117t283 -117t117 -283v-600q0 -166 -117 -283t-283 -117t-283 117t-117 283v600zM600 1000q0 83 -58.5 141.5t-141.5 58.5t-141.5 -58.5t-58.5 -141.5v-600q0 -83 58.5 -141.5t141.5 -58.5t141.5 58.5t58.5 141.5v600z" />
    <glyph glyph-name="P" unicode="P" 
d="M200 1200v-400h200q83 0 141.5 58.5t58.5 141.5t-58.5 141.5t-141.5 58.5h-200zM200 100q0 -41 -29.5 -70.5t-70.5 -29.5t-70.5 29.5t-29.5 70.5v1200q0 41 29.5 70.5t70.5 29.5h300q166 0 283 -117t117 -283t-117 -283t-283 -117h-200v-500z" />
    <glyph glyph-name="Q" unicode="Q" 
d="M0 1000q0 166 117 283t283 117t283 -117t117 -283v-600q0 -113 -54 -203l13 -14v-2q27 -19 36 -52q13 -39 -7 -76t-59 -49t-76 8q-15 8 -26 19l-23 24q-90 -55 -204 -55q-166 0 -283 117t-117 283v600zM600 1000q0 83 -58.5 141.5t-141.5 58.5t-141.5 -58.5t-58.5 -141.5
v-600q0 -83 58.5 -141.5t141.5 -58.5q31 0 58 8l-67 70v2q-27 19 -36 52q-13 39 7 76t59 49t76 -8q15 -8 26 -19l72 -76q5 22 5 46v600z" />
    <glyph glyph-name="R" unicode="R" 
d="M200 1200v-400h200q83 0 141.5 58.5t58.5 141.5t-58.5 141.5t-141.5 58.5h-200zM200 100q0 -41 -29.5 -70.5t-70.5 -29.5t-70.5 29.5t-29.5 70.5v1200q0 41 29.5 70.5t70.5 29.5h300q166 0 283 -117t117 -283t-117 -283q-61 -61 -135 -90l233 -465l-1 -2q20 -26 20 -60
q0 -41 -29.5 -70.5t-70.5 -29.5t-70 30q-13 12 -20 26l-272 544h-138v-500z" />
    <glyph glyph-name="S" unicode="S" 
d="M800 400q0 -166 -117 -283t-333 -117q-196 0 -313 117l1 1q-1 0 -2 2q-30 29 -30 70t29.5 70.5t70.5 29.5t71 -29q0 -1 1 -2q59 -59 172 -59q133 0 191.5 58.5t58.5 141.5t-58.5 141.5t-141.5 58.5q-166 0 -283 117t-117 283t117 283t333 117q196 0 313 -117l-1 -1
q1 0 3 -1q29 -30 29 -71t-29.5 -70.5t-70.5 -29.5t-70 30q-1 0 -2 1q-59 59 -172 59q-133 0 -191.5 -58.5t-58.5 -141.5t58.5 -141.5t141.5 -58.5q166 0 283 -117t117 -283z" />
    <glyph glyph-name="T" unicode="T" 
d="M700 1400q41 0 70.5 -29.5t29.5 -70.5t-29.5 -70.5t-70.5 -29.5h-200v-1100q0 -41 -29.5 -70.5t-70.5 -29.5t-70.5 29.5t-29.5 70.5v1100h-200q-41 0 -70.5 29.5t-29.5 70.5t29.5 70.5t70.5 29.5h600z" />
    <glyph glyph-name="U" unicode="U" 
d="M600 1300q0 41 29.5 70.5t70.5 29.5t70.5 -29.5t29.5 -70.5v-900q0 -166 -117 -283t-283 -117t-283 117t-117 283v900q0 41 29.5 70.5t70.5 29.5t70.5 -29.5t29.5 -70.5v-900q0 -83 58.5 -141.5t141.5 -58.5t141.5 58.5t58.5 141.5v900z" />
    <glyph glyph-name="V" unicode="V" 
d="M623 1321q10 40 45.5 62t75.5 13q39 -10 61 -45.5t13 -75.5l-278 -1196q-10 -40 -45.5 -62t-75.5 -16h-38q-40 -6 -75.5 16t-45.5 62l-278 1196q-9 40 13 75.5t61 45.5q40 9 75.5 -13t45.5 -62l223 -960z" />
    <glyph glyph-name="W" unicode="W" 
d="M0 1300q0 41 29.5 70.5t70.5 29.5t70.5 -29.5t29.5 -70.5v-1050q0 -21 14.5 -35.5t35.5 -14.5t35.5 14.5t14.5 35.5v750q0 41 29.5 70.5t70.5 29.5t70.5 -29.5t29.5 -70.5v-750q0 -21 14.5 -35.5t35.5 -14.5t35.5 14.5t14.5 35.5v1050q0 41 29.5 70.5t70.5 29.5
t70.5 -29.5t29.5 -70.5v-1050q0 -104 -73 -177t-177 -73q-85 0 -150 49q-65 -49 -150 -49q-104 0 -177 73t-73 177v1050z" />
    <glyph glyph-name="X" unicode="X" 
d="M288 700l-269 538l1 2q-20 26 -20 60q0 41 29.5 70.5t70.5 29.5t71 -29q12 -13 19 -27l210 -420l210 420q7 14 20 27q29 29 70 29t70.5 -29.5t29.5 -70.5q0 -34 -20 -60l1 -2l-269 -538l269 -538l-1 -2q20 -26 20 -60q0 -41 -29.5 -70.5t-70.5 -29.5t-70 30
q-13 12 -20 26l-210 420l-210 -420q-7 -14 -19 -26q-30 -30 -71 -30t-70.5 29.5t-29.5 70.5q0 34 20 60l-1 2z" />
    <glyph glyph-name="Y" unicode="Y" 
d="M300 676l-281 562l1 2q-20 26 -20 60q0 41 29.5 70.5t70.5 29.5t71 -29q12 -13 19 -27l210 -420l210 420q7 14 20 27q29 29 70 29t70.5 -29.5t29.5 -70.5q0 -34 -20 -60l1 -2l-281 -562v-576q0 -41 -29.5 -70.5t-70.5 -29.5t-70.5 29.5t-29.5 70.5v576z" />
    <glyph glyph-name="Z" unicode="Z" 
d="M700 200q41 0 70.5 -29.5t29.5 -70.5t-29.5 -70.5t-70.5 -29.5h-600q-41 0 -70.5 29.5t-29.5 70.5q0 34 20 60l-1 2l519 1038h-438q-41 0 -70.5 29.5t-29.5 70.5t29.5 70.5t70.5 29.5h600q41 0 70.5 -29.5t29.5 -70.5q0 -34 -20 -60l1 -2l-519 -1038h438z" />
    <glyph glyph-name="bracketleft" unicode="[" 
d="M500 1600q41 0 70.5 -29.5t29.5 -70.5t-29.5 -70.5t-70.5 -29.5h-200v-1400h200q41 0 70.5 -29.5t29.5 -70.5t-29.5 -70.5t-70.5 -29.5h-300q-41 0 -70.5 29.5t-29.5 70.5v1600q0 41 29.5 70.5t70.5 29.5h300z" />
    <glyph glyph-name="backslash" unicode="\" 
d="M20 1240q-20 26 -20 60q0 41 29.5 70.5t70.5 29.5t71 -29q12 -13 19 -27l591 -1182l-1 -2q20 -26 20 -60q0 -41 -29.5 -70.5t-70.5 -29.5t-70 30q-13 12 -20 26l-591 1182z" />
    <glyph glyph-name="bracketright" unicode="]" 
d="M500 1600q41 0 70.5 -29.5t29.5 -70.5v-1600q0 -41 -29.5 -70.5t-70.5 -29.5h-300q-41 0 -70.5 29.5t-29.5 70.5t29.5 70.5t70.5 29.5h200v1400h-200q-41 0 -70.5 29.5t-29.5 70.5t29.5 70.5t70.5 29.5h300z" />
    <glyph glyph-name="asciicircum" unicode="^" 
d="M402 1130l-142 -230q-24 -34 -65 -41.5t-75 15.5q-33 24 -40.5 65t15.5 74l220 344q24 34 65 42q11 2 22 1q11 1 22 -1q41 -8 65 -42l216 -344q23 -33 15.5 -74t-40.5 -65q-34 -23 -75 -15.5t-65 41.5z" />
    <glyph glyph-name="underscore" unicode="_" 
d="M100 0q-41 0 -70.5 29.5t-29.5 70.5t29.5 70.5t70.5 29.5h600q41 0 70.5 -29.5t29.5 -70.5t-29.5 -70.5t-70.5 -29.5h-600z" />
    <glyph glyph-name="grave" unicode="`" 
d="M261 1226q-23 33 -15.5 74t40.5 65q34 23 75 15.5t65 -41.5l113 -165q23 -33 15.5 -74t-40.5 -65q-34 -23 -75 -15.5t-65 41.5z" />
    <glyph glyph-name="a" unicode="a" 
d="M200 400q0 -83 58.5 -141.5t141.5 -58.5t141.5 58.5t58.5 141.5v200q0 83 -58.5 141.5t-141.5 58.5t-141.5 -58.5t-58.5 -141.5v-200zM609 58q-92 -58 -209 -58q-166 0 -283 117t-117 283v200q0 166 117 283t283 117q117 0 209 -58q7 15 21 29q29 29 70 29t70.5 -29.5
t29.5 -70.5v-800q0 -41 -29.5 -70.5t-70.5 -29.5t-70 30q-14 13 -21 28z" />
    <glyph glyph-name="b" unicode="b" 
d="M200 600v-200q0 -83 58.5 -141.5t141.5 -58.5t141.5 58.5t58.5 141.5v200q0 83 -58.5 141.5t-141.5 58.5t-141.5 -58.5t-58.5 -141.5zM0 1300q0 41 29.5 70.5t70.5 29.5t70.5 -29.5t29.5 -70.5v-352q89 52 200 52q166 0 283 -117t117 -283v-200q0 -166 -117 -283
t-283 -117q-117 0 -209 58q-7 -15 -20 -28q-30 -30 -71 -30t-70.5 29.5t-29.5 70.5v1200z" />
    <glyph glyph-name="c" unicode="c" 
d="M200 400q0 -83 58.5 -141.5t191.5 -58.5q113 0 172 59l2 2q29 29 70 29t70.5 -29.5t29.5 -70.5t-29 -70q-2 -2 -3 -2l1 -1q-117 -117 -313 -117q-216 0 -333 117t-117 283v200q0 166 117 283t333 117q196 0 313 -117l-1 -1q1 0 3 -1q29 -30 29 -71t-29.5 -70.5
t-70.5 -29.5t-70 30q-1 0 -2 1q-59 59 -172 59q-133 0 -191.5 -58.5t-58.5 -141.5v-200z" />
    <glyph glyph-name="d" unicode="d" 
d="M0 600q0 166 117 283t283 117q111 0 200 -52v352q0 41 29.5 70.5t70.5 29.5t70.5 -29.5t29.5 -70.5v-1200q0 -41 -29.5 -70.5t-70.5 -29.5t-70 30q-14 13 -21 28q-92 -58 -209 -58q-166 0 -283 117t-117 283v200zM600 600q0 83 -58.5 141.5t-141.5 58.5t-141.5 -58.5
t-58.5 -141.5v-200q0 -83 58.5 -141.5t141.5 -58.5t141.5 58.5t58.5 141.5v200z" />
    <glyph glyph-name="e" unicode="e" 
d="M0 600q0 166 117 283t283 117t283 -117t117 -283v-100q0 -41 -29.5 -70.5t-70.5 -29.5h-500q0 -83 58.5 -141.5t141.5 -58.5t142 59l2 2q29 29 70 29t70.5 -29.5t29.5 -70.5t-29 -70q-2 -2 -3 -2l1 -1q-117 -117 -283 -117t-283 117t-117 283v200zM600 600
q0 83 -58.5 141.5t-141.5 58.5t-141.5 -58.5t-58.5 -141.5h400z" />
    <glyph glyph-name="f" unicode="f" 
d="M600 1400h100q41 0 70.5 -29.5t29.5 -70.5t-29.5 -70.5t-70.5 -29.5h-100q-83 0 -141.5 -58.5t-58.5 -141.5h300q41 0 70.5 -29.5t29.5 -70.5t-29.5 -70.5t-70.5 -29.5h-300v-700q0 -41 -29.5 -70.5t-70.5 -29.5t-70.5 29.5t-29.5 70.5v700h-100q-41 0 -70.5 29.5
t-29.5 70.5t29.5 70.5t70.5 29.5h100q0 166 117 283t283 117z" />
    <glyph glyph-name="g" unicode="g" 
d="M200 400q0 -83 58.5 -141.5t141.5 -58.5t141.5 58.5t58.5 141.5v200q0 83 -58.5 141.5t-141.5 58.5t-141.5 -58.5t-58.5 -141.5v-200zM600 52q-89 -52 -200 -52q-166 0 -283 117t-117 283v200q0 166 117 283t283 117q117 0 209 -58q7 15 21 29q29 29 70 29t70.5 -29.5
t29.5 -70.5v-900q0 -166 -117 -283t-333 -117q-196 0 -313 117l1 1q-1 0 -2 2q-30 29 -30 70t29.5 70.5t70.5 29.5t71 -29q0 -1 1 -2q59 -59 172 -59q133 0 191.5 58.5t58.5 141.5v52z" />
    <glyph glyph-name="h" unicode="h" 
d="M200 100q0 -41 -29.5 -70.5t-70.5 -29.5t-70.5 29.5t-29.5 70.5v1200q0 41 29.5 70.5t70.5 29.5t70.5 -29.5t29.5 -70.5v-352q89 52 200 52q166 0 283 -117t117 -283v-500q0 -41 -29.5 -70.5t-70.5 -29.5t-70.5 29.5t-29.5 70.5v500q0 83 -58.5 141.5t-141.5 58.5
t-141.5 -58.5t-58.5 -141.5v-500z" />
    <glyph glyph-name="i" unicode="i" 
d="M700 200q41 0 70.5 -29.5t29.5 -70.5t-29.5 -70.5t-70.5 -29.5h-600q-41 0 -70.5 29.5t-29.5 70.5t29.5 70.5t70.5 29.5h200v600h-200q-41 0 -70.5 29.5t-29.5 70.5t29.5 70.5t70.5 29.5h300q41 0 70.5 -29.5t29.5 -70.5v-700h200zM500 1300q0 -41 -29.5 -70.5
t-70.5 -29.5t-70.5 29.5t-29.5 70.5t29.5 70.5t70.5 29.5t70.5 -29.5t29.5 -70.5z" />
    <glyph glyph-name="j" unicode="j" 
d="M700 1000q41 0 70.5 -29.5t29.5 -70.5v-900q0 -166 -117 -283t-333 -117q-196 0 -313 117l1 1q-1 0 -2 2q-30 29 -30 70t29.5 70.5t70.5 29.5t71 -29q0 -1 1 -2q59 -59 172 -59q133 0 191.5 58.5t58.5 141.5v800h-200q-41 0 -70.5 29.5t-29.5 70.5t29.5 70.5t70.5 29.5
h300zM800 1300q0 -41 -29.5 -70.5t-70.5 -29.5t-70.5 29.5t-29.5 70.5t29.5 70.5t70.5 29.5t70.5 -29.5t29.5 -70.5z" />
    <glyph glyph-name="k" unicode="k" 
d="M343 600l271 365q10 13 24 23q34 24 74 17q41 -7 65 -41t17 -75q-6 -33 -31 -55l1 -3l-242 -327l242 -328l-1 -3q25 -22 31 -55q7 -41 -17 -75t-65 -41q-40 -7 -74 17q-14 10 -24 23l-265 358h-149v-300q0 -41 -29.5 -70.5t-70.5 -29.5t-70.5 29.5t-29.5 70.5v1200
q0 41 29.5 70.5t70.5 29.5t70.5 -29.5t29.5 -70.5v-700h143z" />
    <glyph glyph-name="l" unicode="l" 
d="M700 200q41 0 70.5 -29.5t29.5 -70.5t-29.5 -70.5t-70.5 -29.5h-600q-41 0 -70.5 29.5t-29.5 70.5t29.5 70.5t70.5 29.5h200v1000h-200q-41 0 -70.5 29.5t-29.5 70.5t29.5 70.5t70.5 29.5h300q41 0 70.5 -29.5t29.5 -70.5v-1100h200z" />
    <glyph glyph-name="m" unicode="m" 
d="M800 100q0 -41 -29.5 -70.5t-70.5 -29.5t-70.5 29.5t-29.5 70.5v650q0 21 -14.5 35.5t-35.5 14.5t-35.5 -14.5t-14.5 -35.5v-650q0 -41 -29.5 -70.5t-70.5 -29.5t-70.5 29.5t-29.5 70.5v650q0 21 -14.5 35.5t-35.5 14.5t-35.5 -14.5t-14.5 -35.5v-650q0 -41 -29.5 -70.5
t-70.5 -29.5t-70.5 29.5t-29.5 70.5v800q0 41 29.5 70.5t70.5 29.5q31 0 56 -17q43 17 94 17q85 0 150 -49q65 49 150 49q104 0 177 -73t73 -177v-650z" />
    <glyph glyph-name="n" unicode="n" 
d="M200 100q0 -41 -29.5 -70.5t-70.5 -29.5t-70.5 29.5t-29.5 70.5v800q0 41 29.5 70.5t70.5 29.5t71 -29q13 -14 20 -29q92 58 209 58q166 0 283 -117t117 -283v-500q0 -41 -29.5 -70.5t-70.5 -29.5t-70.5 29.5t-29.5 70.5v500q0 83 -58.5 141.5t-141.5 58.5t-141.5 -58.5
t-58.5 -141.5v-500z" />
    <glyph glyph-name="o" unicode="o" 
d="M0 600q0 166 117 283t283 117t283 -117t117 -283v-200q0 -166 -117 -283t-283 -117t-283 117t-117 283v200zM600 600q0 83 -58.5 141.5t-141.5 58.5t-141.5 -58.5t-58.5 -141.5v-200q0 -83 58.5 -141.5t141.5 -58.5t141.5 58.5t58.5 141.5v200z" />
    <glyph glyph-name="p" unicode="p" 
d="M800 400q0 -166 -117 -283t-283 -117q-111 0 -200 52v-352q0 -41 -29.5 -70.5t-70.5 -29.5t-70.5 29.5t-29.5 70.5v1200q0 41 29.5 70.5t70.5 29.5t71 -29q13 -14 20 -29q92 58 209 58q166 0 283 -117t117 -283v-200zM200 400q0 -83 58.5 -141.5t141.5 -58.5t141.5 58.5
t58.5 141.5v200q0 83 -58.5 141.5t-141.5 58.5t-141.5 -58.5t-58.5 -141.5v-200z" />
    <glyph glyph-name="q" unicode="q" 
d="M200 400q0 -83 58.5 -141.5t141.5 -58.5t141.5 58.5t58.5 141.5v200q0 83 -58.5 141.5t-141.5 58.5t-141.5 -58.5t-58.5 -141.5v-200zM600 52q-89 -52 -200 -52q-166 0 -283 117t-117 283v200q0 166 117 283t283 117q117 0 209 -58q7 15 21 29q29 29 70 29t70.5 -29.5
t29.5 -70.5v-1200q0 -41 -29.5 -70.5t-70.5 -29.5t-70.5 29.5t-29.5 70.5v352z" />
    <glyph glyph-name="r" unicode="r" 
d="M200 100q0 -41 -29.5 -70.5t-70.5 -29.5t-70.5 29.5t-29.5 70.5v800q0 41 29.5 70.5t70.5 29.5t71 -29q13 -14 21 -31q104 60 258 60q206 0 323 -117l-1 -1q1 0 3 -1q29 -30 29 -71t-29.5 -70.5t-70.5 -29.5t-70 30q-1 0 -2 1q-59 59 -182 59q-133 0 -191.5 -58.5
t-58.5 -141.5v-500z" />
    <glyph glyph-name="s" unicode="s" 
d="M800 300q0 -116 -117 -208t-333 -92q-196 0 -313 117l1 1q-1 0 -2 2q-30 29 -30 70t29.5 70.5t70.5 29.5t71 -29q0 -1 1 -2q59 -59 172 -59q133 0 191.5 33.5t58.5 66.5t-43.5 66.5t-198 33.5t-256.5 92t-102 208t117 208t333 92q196 0 313 -117l-1 -1q1 0 3 -1
q29 -30 29 -71t-29.5 -70.5t-70.5 -29.5t-70 30q-1 0 -2 1q-59 59 -172 59q-133 0 -191.5 -33.5t-58.5 -66.5t43.5 -66.5t198 -33.5t256.5 -92t102 -208z" />
    <glyph glyph-name="t" unicode="t" 
d="M600 200h100q41 0 70.5 -29.5t29.5 -70.5t-29.5 -70.5t-70.5 -29.5h-100q-166 0 -283 117t-117 283v400h-100q-41 0 -70.5 29.5t-29.5 70.5t29.5 70.5t70.5 29.5h100v300q0 41 29.5 70.5t70.5 29.5t70.5 -29.5t29.5 -70.5v-300h300q41 0 70.5 -29.5t29.5 -70.5
t-29.5 -70.5t-70.5 -29.5h-300v-400q0 -83 58.5 -141.5t141.5 -58.5z" />
    <glyph glyph-name="u" unicode="u" 
d="M600 900q0 41 29.5 70.5t70.5 29.5t70.5 -29.5t29.5 -70.5v-800q0 -41 -29.5 -70.5t-70.5 -29.5t-70 30q-14 13 -21 28q-92 -58 -209 -58q-166 0 -283 117t-117 283v500q0 41 29.5 70.5t70.5 29.5t70.5 -29.5t29.5 -70.5v-500q0 -83 58.5 -141.5t141.5 -58.5t141.5 58.5
t58.5 141.5v500z" />
    <glyph glyph-name="v" unicode="v" 
d="M620 920q10 40 45.5 62t75.5 13q39 -10 61 -45.5t13 -75.5l-275 -795q-20 -40 -50.5 -62t-70.5 -16h-38q-40 -6 -70.5 16t-50.5 62l-275 796q-9 40 13 75.5t61 45.5q40 9 75.5 -13t45.5 -62l220 -620z" />
    <glyph glyph-name="w" unicode="w" 
d="M0 900q0 41 29.5 70.5t70.5 29.5t70.5 -29.5t29.5 -70.5v-650q0 -21 14.5 -35.5t35.5 -14.5t35.5 14.5t14.5 35.5v650q0 41 29.5 70.5t70.5 29.5t70.5 -29.5t29.5 -70.5v-650q0 -21 14.5 -35.5t35.5 -14.5t35.5 14.5t14.5 35.5v650q0 41 29.5 70.5t70.5 29.5t70.5 -29.5
t29.5 -70.5v-650q0 -104 -73 -177t-177 -73q-85 0 -150 49q-65 -49 -150 -49q-104 0 -177 73t-73 177v650z" />
    <glyph glyph-name="x" unicode="x" 
d="M272 504l-242 327l1 3q-25 22 -31 55q-7 41 17 75t65 41q40 7 74 -17q14 -10 24 -23l217 -293l217 293q10 13 24 23q34 24 74 17q41 -7 65 -41t17 -75q-6 -33 -31 -55l1 -3l-242 -327l242 -328l-1 -3q25 -22 31 -55q7 -41 -17 -75t-65 -41q-40 -7 -74 17q-14 10 -24 23
l-217 293l-217 -293q-10 -13 -24 -23q-34 -24 -74 -17q-41 7 -65 41t-17 75q6 33 31 55l-1 3z" />
    <glyph glyph-name="y" unicode="y" 
d="M600 900q0 41 29.5 70.5t70.5 29.5t70.5 -29.5t29.5 -70.5v-900q0 -166 -117 -283t-333 -117q-196 0 -313 117l1 1q-1 0 -2 2q-30 29 -30 70t29.5 70.5t70.5 29.5t71 -29q0 -1 1 -2q59 -59 172 -59q133 0 191.5 58.5t58.5 141.5v52q-89 -52 -200 -52q-166 0 -283 117
t-117 283v500q0 41 29.5 70.5t70.5 29.5t70.5 -29.5t29.5 -70.5v-500q0 -83 58.5 -141.5t141.5 -58.5t141.5 58.5t58.5 141.5v500z" />
    <glyph glyph-name="z" unicode="z" 
d="M700 200q41 0 70.5 -29.5t29.5 -70.5t-29.5 -70.5t-70.5 -29.5h-600q-9 0 -18 2q-41 7 -65 41t-17 75q6 33 31 55l-1 3l462 624h-392q-41 0 -70.5 29.5t-29.5 70.5t29.5 70.5t70.5 29.5h560q25 10 52 5q41 -7 65 -41t17 -75q-6 -33 -31 -55l1 -3l-467 -631h403z" />
    <glyph glyph-name="braceleft" unicode="{" 
d="M700 1600q41 0 70.5 -29.5t29.5 -70.5t-29.5 -70.5t-70.5 -29.5q-83 0 -141.5 -58.5t-58.5 -141.5v-200q0 -166 -117 -283q-9 -9 -18 -17q9 -8 18 -17q117 -117 117 -283v-200q0 -83 58.5 -141.5t141.5 -58.5q41 0 70.5 -29.5t29.5 -70.5t-29.5 -70.5t-70.5 -29.5
q-166 0 -283 117t-117 283v200q0 83 -58.5 141.5t-141.5 58.5q-41 0 -70.5 29.5t-29.5 70.5t29.5 70.5t70.5 29.5q83 0 141.5 58.5t58.5 141.5v200q0 166 117 283t283 117z" />
    <glyph glyph-name="bar" unicode="|" 
d="M300 1500q0 41 29.5 70.5t70.5 29.5t70.5 -29.5t29.5 -70.5v-1600q0 -41 -29.5 -70.5t-70.5 -29.5t-70.5 29.5t-29.5 70.5v1600z" />
    <glyph glyph-name="braceright" unicode="}" 
d="M100 1400q-41 0 -70.5 29.5t-29.5 70.5t29.5 70.5t70.5 29.5q166 0 283 -117t117 -283v-200q0 -83 58.5 -141.5t141.5 -58.5q41 0 70.5 -29.5t29.5 -70.5t-29.5 -70.5t-70.5 -29.5q-83 0 -141.5 -58.5t-58.5 -141.5v-200q0 -166 -117 -283t-283 -117q-41 0 -70.5 29.5
t-29.5 70.5t29.5 70.5t70.5 29.5q83 0 141.5 58.5t58.5 141.5v200q0 166 117 283q9 9 18 17q-9 8 -18 17q-117 117 -117 283v200q0 83 -58.5 141.5t-141.5 58.5z" />
    <glyph glyph-name="asciitilde" unicode="~" 
d="M100 600q-41 0 -70.5 29.5t-29.5 70.5t29.5 70.5t120 59.5t240.5 -40q132 -61 200.5 -25.5t109.5 35.5t70.5 -29.5t29.5 -70.5t-29.5 -70.5t-125 -64.5t-245.5 35q-142 71 -200.5 35.5t-99.5 -35.5z" />
    <glyph glyph-name="exclamdown" unicode="&#xa1;" 
d="M300 524q0 41 29.5 70.5t70.5 29.5t70.5 -29.5t29.5 -70.5v-800q0 -41 -29.5 -70.5t-70.5 -29.5t-70.5 29.5t-29.5 70.5v800zM500 924q0 -41 -29.5 -70.5t-70.5 -29.5t-70.5 29.5t-29.5 70.5t29.5 70.5t70.5 29.5t70.5 -29.5t29.5 -70.5z" />
    <glyph glyph-name="cent" unicode="&#xa2;" 
d="M500 203q77 11 122 56l2 2q29 29 70 29t70.5 -29.5t29.5 -70.5t-29 -70q-2 -2 -3 -2l1 -1q-102 -102 -263 -115v-102q0 -41 -29.5 -70.5t-70.5 -29.5t-70.5 29.5t-29.5 70.5v117q-111 28 -183 100q-117 117 -117 283v200q0 166 117 283q72 72 183 100v117q0 41 29.5 70.5
t70.5 29.5t70.5 -29.5t29.5 -70.5v-102q161 -13 263 -115l-1 -1q1 0 3 -1q29 -30 29 -71t-29.5 -70.5t-70.5 -29.5t-70 30q-1 0 -2 1q-45 45 -122 56v-594zM200 400q0 -83 59 -141q17 -18 41 -30v542q-24 -12 -41 -29q-59 -59 -59 -142v-200z" />
    <glyph glyph-name="sterling" unicode="&#xa3;" 
d="M100 200v250q-41 0 -70.5 29.5t-29.5 70.5t29.5 70.5t70.5 29.5v100q-41 0 -70.5 29.5t-29.5 70.5t29.5 70.5t70.5 29.5v50q0 166 117 283t283 117q146 0 263 -117l-1 -1q1 0 3 -1q29 -30 29 -71t-29.5 -70.5t-70.5 -29.5t-70 30q-1 0 -2 1q-59 59 -122 59
q-83 0 -141.5 -58.5t-58.5 -141.5v-50h350q41 0 70.5 -29.5t29.5 -70.5t-29.5 -70.5t-70.5 -29.5h-350v-100h350q41 0 70.5 -29.5t29.5 -70.5t-29.5 -70.5t-70.5 -29.5h-350v-250h400q41 0 70.5 -29.5t29.5 -70.5t-29.5 -70.5t-70.5 -29.5h-600q-41 0 -70.5 29.5t-29.5 70.5
t29.5 70.5t70.5 29.5z" />
    <glyph glyph-name="yen" unicode="&#xa5;" 
d="M288 700l-269 538l1 2q-20 26 -20 60q0 41 29.5 70.5t70.5 29.5t71 -29q12 -13 19 -27l210 -420l210 420q7 14 20 27q29 29 70 29t70.5 -29.5t29.5 -70.5q0 -34 -20 -60l1 -2l-269 -538h188q41 0 70.5 -29.5t29.5 -70.5t-29.5 -70.5t-70.5 -29.5h-200v-100h200
q41 0 70.5 -29.5t29.5 -70.5t-29.5 -70.5t-70.5 -29.5h-200v-100q0 -41 -29.5 -70.5t-70.5 -29.5t-70.5 29.5t-29.5 70.5v100h-200q-41 0 -70.5 29.5t-29.5 70.5t29.5 70.5t70.5 29.5h200v100h-200q-41 0 -70.5 29.5t-29.5 70.5t29.5 70.5t70.5 29.5h188z" />
    <glyph glyph-name="brokenbar" unicode="&#xa6;" 
d="M300 1500q0 41 29.5 70.5t70.5 29.5t70.5 -29.5t29.5 -70.5v-1600q0 -41 -29.5 -70.5t-70.5 -29.5t-70.5 29.5t-29.5 70.5v1600z" />
    <glyph glyph-name="section" unicode="&#xa7;" 
d="M800 300q0 -116 -117 -208t-333 -92q-196 0 -313 117l1 1q-1 0 -2 2q-30 29 -30 70t29.5 70.5t70.5 29.5t71 -29q0 -1 1 -2q59 -59 172 -59q133 0 191.5 33.5t58.5 66.5t-43.5 66.5t-198 33.5t-256.5 92t-102 208q0 107 100 194q-100 91 -100 206q0 116 117 208t333 92
q196 0 313 -117l-1 -1q1 0 3 -1q29 -30 29 -71t-29.5 -70.5t-70.5 -29.5t-70 30q-1 0 -2 1q-59 59 -172 59q-133 0 -191.5 -33.5t-58.5 -66.5t43.5 -66.5t198 -33.5t256.5 -92t102 -208q0 -107 -100 -194q100 -91 100 -206zM200 700q0 -33 44 -66q39 -31 171 -34
q73 3 127 34q58 33 58 66t-43 67q-40 30 -172 33q-73 -3 -126 -33q-59 -34 -59 -67z" />
    <glyph glyph-name="dieresis" unicode="&#xa8;" 
d="M270.5 1370.5q29.5 -29.5 29.5 -70.5t-29.5 -70.5t-70.5 -29.5t-70.5 29.5t-29.5 70.5t29.5 70.5t70.5 29.5t70.5 -29.5zM670.5 1370.5q29.5 -29.5 29.5 -70.5t-29.5 -70.5t-70.5 -29.5t-70.5 29.5t-29.5 70.5t29.5 70.5t70.5 29.5t70.5 -29.5z" />
    <glyph glyph-name="copyright" unicode="&#xa9;" 
d="M200 400q0 -83 58.5 -141.5t141.5 -58.5t142 59q50 50 57 118q-93 -77 -179 -77q-135 0 -220 101v-1zM600 587v226q-12 -3 -26 -3q-41 0 -70 30q-1 0 -2 1q-19 59 -82 59t-91.5 -58.5t-28.5 -141.5t28.5 -141.5t91.5 -58.5t82 59l2 2q29 29 70 29q14 0 26 -3zM0 1000
q0 166 117 283t283 117t283 -117t117 -283v-600q0 -166 -117 -283t-283 -117t-283 117t-117 283v600zM599 1023q-7 68 -57 119q-59 58 -142 58t-141.5 -58.5t-58.5 -141.5v-1q85 101 220 101q86 0 179 -77z" />
    <glyph glyph-name="ordfeminine" unicode="&#xaa;" 
d="M200 800q0 -83 58.5 -141.5t141.5 -58.5t141.5 58.5t58.5 141.5v200q0 83 -58.5 141.5t-141.5 58.5t-141.5 -58.5t-58.5 -141.5v-200zM609 458q-92 -58 -209 -58q-166 0 -283 117t-117 283v200q0 166 117 283t283 117q117 0 209 -58q7 15 21 29q29 29 70 29t70.5 -29.5
t29.5 -70.5v-800q0 -41 -29.5 -70.5t-70.5 -29.5t-70 30q-14 13 -21 28z" />
    <glyph glyph-name="macron" unicode="&#xaf;" 
d="M100 1200q-41 0 -70.5 29.5t-29.5 70.5t29.5 70.5t70.5 29.5h600q41 0 70.5 -29.5t29.5 -70.5t-29.5 -70.5t-70.5 -29.5h-600z" />
    <glyph glyph-name="degree" unicode="&#xb0;" 
d="M577 1327q73 -73 73 -177t-73 -177t-177 -73t-177 73t-73 177t73 177t177 73t177 -73zM400 1250q-41 0 -70.5 -29.5t-29.5 -70.5t29.5 -70.5t70.5 -29.5t70.5 29.5t29.5 70.5t-29.5 70.5t-70.5 29.5z" />
    <glyph glyph-name="plusminus" unicode="&#xb1;" 
d="M300 450v200h-200q-41 0 -70.5 29.5t-29.5 70.5t29.5 70.5t70.5 29.5h200v200q0 41 29.5 70.5t70.5 29.5t70.5 -29.5t29.5 -70.5v-200h200q41 0 70.5 -29.5t29.5 -70.5t-29.5 -70.5t-70.5 -29.5h-200v-200h200q41 0 70.5 -29.5t29.5 -70.5t-29.5 -70.5t-70.5 -29.5h-600
q-41 0 -70.5 29.5t-29.5 70.5t29.5 70.5t70.5 29.5h200z" />
    <glyph glyph-name="uni00B2" unicode="&#xb2;" 
d="M200 700v-100h250q113 0 172 59l2 2q29 29 70 29t70.5 -29.5t29.5 -70.5t-29 -70q-2 -2 -3 -2l1 -1q-117 -117 -313 -117h-450v300q0 116 102 208t256.5 92t198 33.5t43.5 66.5t-58.5 66.5t-191.5 33.5q-113 0 -172 -59l-1 -1q-30 -30 -71 -30t-70.5 29.5t-29.5 70.5
t30 71q1 1 2 1l-1 1q117 117 313 117q216 0 333 -92t117 -208t-102 -208t-256.5 -92t-198 -33.5t-43.5 -66.5z" />
    <glyph glyph-name="uni00B3" unicode="&#xb3;" 
d="M358.5 1000q154.5 0 198 33.5t43.5 66.5t-58.5 66.5t-191.5 33.5q-113 0 -172 -59l-1 -1q-30 -30 -71 -30t-70.5 29.5t-29.5 70.5t30 71q1 1 2 1l-1 1q117 117 313 117q216 0 333 -92t117 -208q0 -111 -93 -200h-6q93 -89 93 -200q0 -116 -117 -208t-333 -92
q-196 0 -313 117l1 1q-1 0 -2 1q-30 30 -30 71t29.5 70.5t70.5 29.5t71 -30l1 -1q59 -59 172 -59q133 0 191.5 33.5t58.5 66.5t-43.5 66.5t-198 33.5t-151.5 100t157.5 100z" />
    <glyph glyph-name="acute" unicode="&#xb4;" 
d="M426 1061q-24 -34 -65 -41.5t-75 15.5q-33 24 -40.5 65t15.5 74l113 165q24 34 65 41.5t75 -15.5q33 -24 40.5 -65t-15.5 -74z" />
    <glyph glyph-name="mu" unicode="&#xb5;" 
d="M0 900q0 41 29.5 70.5t70.5 29.5t70.5 -29.5t29.5 -70.5v-500q0 -83 58.5 -141.5t141.5 -58.5t141.5 58.5t58.5 141.5v500q0 41 29.5 70.5t70.5 29.5t70.5 -29.5t29.5 -70.5v-800q0 -41 -29.5 -70.5t-70.5 -29.5t-70 30q-14 13 -21 28q-92 -58 -209 -58q-111 0 -200 52
v-352q0 -41 -29.5 -70.5t-70.5 -29.5t-70.5 29.5t-29.5 70.5v1200z" />
    <glyph glyph-name="paragraph" unicode="&#xb6;" 
d="M700 1400q41 0 70.5 -29.5t29.5 -70.5v-1200q0 -41 -29.5 -70.5t-70.5 -29.5t-70.5 29.5t-29.5 70.5v1100h-100v-1100q0 -41 -29.5 -70.5t-70.5 -29.5t-70.5 29.5t-29.5 70.5v512q-103 25 -183 105q-117 117 -117 283t117 283t283 117h300z" />
    <glyph glyph-name="periodcentered" unicode="&#xb7;" 
d="M506 806q44 -44 44 -106t-44 -106t-106 -44t-106 44t-44 106t44 106t106 44t106 -44z" />
    <glyph glyph-name="periodcentered" unicode="&#x2219;" 
d="M506 806q44 -44 44 -106t-44 -106t-106 -44t-106 44t-44 106t44 106t106 44t106 -44z" />
    <glyph glyph-name="cedilla" unicode="&#xb8;" 
d="M580 167l-100 -200q100 0 118 -100t-100 -150t-182 50q164 100 64 100t-100 100l100 200h200z" />
    <glyph glyph-name="uni00B9" unicode="&#xb9;" 
d="M700 600q41 0 70.5 -29.5t29.5 -70.5t-29.5 -70.5t-70.5 -29.5h-600q-41 0 -70.5 29.5t-29.5 70.5t29.5 70.5t70.5 29.5h200v600h-200q-41 0 -70.5 29.5t-29.5 70.5t29.5 70.5t70.5 29.5h300q41 0 70.5 -29.5t29.5 -70.5v-700h200z" />
    <glyph glyph-name="ordmasculine" unicode="&#xba;" 
d="M0 1000q0 166 117 283t283 117t283 -117t117 -283v-200q0 -166 -117 -283t-283 -117t-283 117t-117 283v200zM600 1000q0 83 -58.5 141.5t-141.5 58.5t-141.5 -58.5t-58.5 -141.5v-200q0 -83 58.5 -141.5t141.5 -58.5t141.5 58.5t58.5 141.5v200z" />
    <glyph glyph-name="questiondown" unicode="&#xbf;" 
d="M306 924q0 41 29.5 70.5t70.5 29.5t70.5 -29.5t29.5 -70.5t-29.5 -70.5t-70.5 -29.5t-70.5 29.5t-29.5 70.5zM206 24q0 -83 58.5 -141.5t191.5 -58.5q113 0 172 59l1 1q30 30 71 30t70.5 -29.5t29.5 -70.5t-30 -71q-1 -1 -2 -1l1 -1q-117 -117 -313 -117q-216 0 -333 117
t-117 283t117 283q80 80 183 105v112q0 41 29.5 70.5t70.5 29.5t70.5 -29.5t29.5 -70.5v-200q0 -41 -29.5 -70.5t-70.5 -29.5q-83 0 -141.5 -58.5t-58.5 -141.5z" />
    <glyph glyph-name="Agrave" unicode="&#xc0;" 
d="M206 200l-29 -123q-10 -40 -45.5 -62t-75.5 -13q-39 10 -61 45.5t-13 75.5l278 1196q10 40 45.5 62t75.5 16h38q40 6 75.5 -16t45.5 -62l278 -1196q9 -40 -13 -75.5t-61 -45.5q-40 -9 -75.5 13t-45.5 62l-29 123h-388zM252 400h296l-148 636zM209 1636q-23 33 -15.5 74
t40.5 65q34 23 75 15.5t65 -41.5l113 -165q23 -33 15.5 -74t-40.5 -65q-34 -23 -75 -15.5t-65 41.5z" />
    <glyph glyph-name="Aacute" unicode="&#xc1;" 
d="M206 200l-29 -123q-10 -40 -45.5 -62t-75.5 -13q-39 10 -61 45.5t-13 75.5l278 1196q10 40 45.5 62t75.5 16h38q40 6 75.5 -16t45.5 -62l278 -1196q9 -40 -13 -75.5t-61 -45.5q-40 -9 -75.5 13t-45.5 62l-29 123h-388zM252 400h296l-148 636zM478 1471q-24 -34 -65 -41.5
t-75 15.5q-33 24 -40.5 65t15.5 74l113 165q24 34 65 41.5t75 -15.5q33 -24 40.5 -65t-15.5 -74z" />
    <glyph glyph-name="Acircumflex" unicode="&#xc2;" 
d="M206 200l-29 -123q-10 -40 -45.5 -62t-75.5 -13q-39 10 -61 45.5t-13 75.5l278 1196q10 40 45.5 62t75.5 16h38q40 6 75.5 -16t45.5 -62l278 -1196q9 -40 -13 -75.5t-61 -45.5q-40 -9 -75.5 13t-45.5 62l-29 123h-388zM252 400h296l-148 636zM400 1540l-35 -51
q-24 -34 -65 -41.5t-75 15.5q-33 24 -40.5 65t15.5 74l113 165q24 34 65 42q11 2 22 1q11 1 22 -1q41 -8 65 -42l113 -165q23 -33 15.5 -74t-40.5 -65q-34 -23 -75 -15.5t-65 41.5z" />
    <glyph glyph-name="Atilde" unicode="&#xc3;" 
d="M206 200l-29 -123q-10 -40 -45.5 -62t-75.5 -13q-39 10 -61 45.5t-13 75.5l278 1196q10 40 45.5 62t75.5 16h38q40 6 75.5 -16t45.5 -62l278 -1196q9 -40 -13 -75.5t-61 -45.5q-40 -9 -75.5 13t-45.5 62l-29 123h-388zM252 400h296l-148 636zM200 1581q-41 0 -70.5 29.5
t-29.5 70.5t29.5 70.5t85 49.5t175.5 -30q102 -41 135.5 -15.5t74.5 25.5t70.5 -29.5t29.5 -70.5t-29.5 -70.5t-90 -54.5t-180.5 25q-112 51 -135.5 25.5t-64.5 -25.5z" />
    <glyph glyph-name="Adieresis" unicode="&#xc4;" 
d="M206 200l-29 -123q-10 -40 -45.5 -62t-75.5 -13q-39 10 -61 45.5t-13 75.5l278 1196q10 40 45.5 62t75.5 16h38q40 6 75.5 -16t45.5 -62l278 -1196q9 -40 -13 -75.5t-61 -45.5q-40 -9 -75.5 13t-45.5 62l-29 123h-388zM252 400h296l-148 636zM270.5 1780.5
q29.5 -29.5 29.5 -70.5t-29.5 -70.5t-70.5 -29.5t-70.5 29.5t-29.5 70.5t29.5 70.5t70.5 29.5t70.5 -29.5zM670.5 1780.5q29.5 -29.5 29.5 -70.5t-29.5 -70.5t-70.5 -29.5t-70.5 29.5t-29.5 70.5t29.5 70.5t70.5 29.5t70.5 -29.5z" />
    <glyph glyph-name="Aring" unicode="&#xc5;" 
d="M400 1660q-41 0 -70.5 -29.5t-29.5 -70.5t29.5 -70.5t70.5 -29.5t70.5 29.5t29.5 70.5t-29.5 70.5t-70.5 29.5zM206 200l-29 -123q-10 -40 -45.5 -62t-75.5 -13q-39 10 -61 45.5t-13 75.5l278 1196q4 14 10 26q-25 16 -47 38q-73 73 -73 177t73 177t177 73t177 -73
t73 -177t-73 -177q-22 -22 -47 -38q6 -12 10 -26l278 -1196q9 -40 -13 -75.5t-61 -45.5q-40 -9 -75.5 13t-45.5 62l-29 123h-388zM252 400h296l-148 636z" />
    <glyph glyph-name="AE" unicode="&#xc6;" 
d="M400 400v636l-148 -636h148zM700 1400q41 0 70.5 -29.5t29.5 -70.5t-29.5 -70.5t-70.5 -29.5h-100v-400h100q41 0 70.5 -29.5t29.5 -70.5t-29.5 -70.5t-70.5 -29.5h-100v-400h100q41 0 70.5 -29.5t29.5 -70.5t-29.5 -70.5t-70.5 -29.5h-200q-41 0 -70.5 29.5t-29.5 70.5
v100h-194l-29 -123q-10 -40 -45.5 -62t-75.5 -13q-39 10 -61 45.5t-13 75.5l278 1196q10 40 45.5 62t75.5 16z" />
    <glyph glyph-name="Ccedilla" unicode="&#xc7;" 
d="M762 118l1 -1q-117 -117 -313 -117q-216 0 -333 117t-117 283h200q0 -83 58.5 -141.5t191.5 -58.5q113 0 172 59l2 2q29 29 70 29t70.5 -29.5t29.5 -70.5t-29 -70q-2 -2 -3 -2zM765 1281q29 -30 29 -71t-29.5 -70.5t-70.5 -29.5t-70 30q-1 0 -2 1q-59 59 -172 59
q-133 0 -191.5 -58.5t-58.5 -141.5h-200q0 166 117 283t333 117q196 0 313 -117l-1 -1q1 0 3 -1zM200 1000v-600h-200v600h200zM580 167l-100 -200q100 0 118 -100t-100 -150t-182 50q164 100 64 100t-100 100l100 200h200z" />
    <glyph glyph-name="Egrave" unicode="&#xc8;" 
d="M700 1400q41 0 70.5 -29.5t29.5 -70.5t-29.5 -70.5t-70.5 -29.5h-500v-400h400q41 0 70.5 -29.5t29.5 -70.5t-29.5 -70.5t-70.5 -29.5h-400v-400h500q41 0 70.5 -29.5t29.5 -70.5t-29.5 -70.5t-70.5 -29.5h-600q-41 0 -70.5 29.5t-29.5 70.5v1200q0 41 29.5 70.5
t70.5 29.5h600zM209 1636q-23 33 -15.5 74t40.5 65q34 23 75 15.5t65 -41.5l113 -165q23 -33 15.5 -74t-40.5 -65q-34 -23 -75 -15.5t-65 41.5z" />
    <glyph glyph-name="Eacute" unicode="&#xc9;" 
d="M700 1400q41 0 70.5 -29.5t29.5 -70.5t-29.5 -70.5t-70.5 -29.5h-500v-400h400q41 0 70.5 -29.5t29.5 -70.5t-29.5 -70.5t-70.5 -29.5h-400v-400h500q41 0 70.5 -29.5t29.5 -70.5t-29.5 -70.5t-70.5 -29.5h-600q-41 0 -70.5 29.5t-29.5 70.5v1200q0 41 29.5 70.5
t70.5 29.5h600zM478 1471q-24 -34 -65 -41.5t-75 15.5q-33 24 -40.5 65t15.5 74l113 165q24 34 65 41.5t75 -15.5q33 -24 40.5 -65t-15.5 -74z" />
    <glyph glyph-name="Ecircumflex" unicode="&#xca;" 
d="M700 1400q41 0 70.5 -29.5t29.5 -70.5t-29.5 -70.5t-70.5 -29.5h-500v-400h400q41 0 70.5 -29.5t29.5 -70.5t-29.5 -70.5t-70.5 -29.5h-400v-400h500q41 0 70.5 -29.5t29.5 -70.5t-29.5 -70.5t-70.5 -29.5h-600q-41 0 -70.5 29.5t-29.5 70.5v1200q0 41 29.5 70.5
t70.5 29.5h600zM400 1540l-35 -51q-24 -34 -65 -41.5t-75 15.5q-33 24 -40.5 65t15.5 74l113 165q24 34 65 42q11 2 22 1q11 1 22 -1q41 -8 65 -42l113 -165q23 -33 15.5 -74t-40.5 -65q-34 -23 -75 -15.5t-65 41.5z" />
    <glyph glyph-name="Edieresis" unicode="&#xcb;" 
d="M700 1400q41 0 70.5 -29.5t29.5 -70.5t-29.5 -70.5t-70.5 -29.5h-500v-400h400q41 0 70.5 -29.5t29.5 -70.5t-29.5 -70.5t-70.5 -29.5h-400v-400h500q41 0 70.5 -29.5t29.5 -70.5t-29.5 -70.5t-70.5 -29.5h-600q-41 0 -70.5 29.5t-29.5 70.5v1200q0 41 29.5 70.5
t70.5 29.5h600zM270.5 1780.5q29.5 -29.5 29.5 -70.5t-29.5 -70.5t-70.5 -29.5t-70.5 29.5t-29.5 70.5t29.5 70.5t70.5 29.5t70.5 -29.5zM670.5 1780.5q29.5 -29.5 29.5 -70.5t-29.5 -70.5t-70.5 -29.5t-70.5 29.5t-29.5 70.5t29.5 70.5t70.5 29.5t70.5 -29.5z" />
    <glyph glyph-name="Igrave" unicode="&#xcc;" 
d="M700 200q41 0 70.5 -29.5t29.5 -70.5t-29.5 -70.5t-70.5 -29.5h-600q-41 0 -70.5 29.5t-29.5 70.5t29.5 70.5t70.5 29.5h200v1000h-200q-41 0 -70.5 29.5t-29.5 70.5t29.5 70.5t70.5 29.5h600q41 0 70.5 -29.5t29.5 -70.5t-29.5 -70.5t-70.5 -29.5h-200v-1000h200z
M209 1636q-23 33 -15.5 74t40.5 65q34 23 75 15.5t65 -41.5l113 -165q23 -33 15.5 -74t-40.5 -65q-34 -23 -75 -15.5t-65 41.5z" />
    <glyph glyph-name="Iacute" unicode="&#xcd;" 
d="M700 200q41 0 70.5 -29.5t29.5 -70.5t-29.5 -70.5t-70.5 -29.5h-600q-41 0 -70.5 29.5t-29.5 70.5t29.5 70.5t70.5 29.5h200v1000h-200q-41 0 -70.5 29.5t-29.5 70.5t29.5 70.5t70.5 29.5h600q41 0 70.5 -29.5t29.5 -70.5t-29.5 -70.5t-70.5 -29.5h-200v-1000h200z
M478 1471q-24 -34 -65 -41.5t-75 15.5q-33 24 -40.5 65t15.5 74l113 165q24 34 65 41.5t75 -15.5q33 -24 40.5 -65t-15.5 -74z" />
    <glyph glyph-name="Icircumflex" unicode="&#xce;" 
d="M700 200q41 0 70.5 -29.5t29.5 -70.5t-29.5 -70.5t-70.5 -29.5h-600q-41 0 -70.5 29.5t-29.5 70.5t29.5 70.5t70.5 29.5h200v1000h-200q-41 0 -70.5 29.5t-29.5 70.5t29.5 70.5t70.5 29.5h600q41 0 70.5 -29.5t29.5 -70.5t-29.5 -70.5t-70.5 -29.5h-200v-1000h200z
M400 1540l-35 -51q-24 -34 -65 -41.5t-75 15.5q-33 24 -40.5 65t15.5 74l113 165q24 34 65 42q11 2 22 1q11 1 22 -1q41 -8 65 -42l113 -165q23 -33 15.5 -74t-40.5 -65q-34 -23 -75 -15.5t-65 41.5z" />
    <glyph glyph-name="Idieresis" unicode="&#xcf;" 
d="M700 200q41 0 70.5 -29.5t29.5 -70.5t-29.5 -70.5t-70.5 -29.5h-600q-41 0 -70.5 29.5t-29.5 70.5t29.5 70.5t70.5 29.5h200v1000h-200q-41 0 -70.5 29.5t-29.5 70.5t29.5 70.5t70.5 29.5h600q41 0 70.5 -29.5t29.5 -70.5t-29.5 -70.5t-70.5 -29.5h-200v-1000h200z
M270.5 1780.5q29.5 -29.5 29.5 -70.5t-29.5 -70.5t-70.5 -29.5t-70.5 29.5t-29.5 70.5t29.5 70.5t70.5 29.5t70.5 -29.5zM670.5 1780.5q29.5 -29.5 29.5 -70.5t-29.5 -70.5t-70.5 -29.5t-70.5 29.5t-29.5 70.5t29.5 70.5t70.5 29.5t70.5 -29.5z" />
    <glyph glyph-name="Eth" unicode="&#xd0;" 
d="M400 1400q166 0 283 -117t117 -283v-600q0 -166 -117 -283t-283 -117h-200q-41 0 -70.5 29.5t-29.5 70.5v500q-41 0 -70.5 29.5t-29.5 70.5t29.5 70.5t70.5 29.5v500q0 41 29.5 70.5t70.5 29.5h200zM600 1000q0 83 -58.5 141.5t-141.5 58.5h-100v-400h100
q41 0 70.5 -29.5t29.5 -70.5t-29.5 -70.5t-70.5 -29.5h-100v-400h100q83 0 141.5 58.5t58.5 141.5v600z" />
    <glyph glyph-name="Ntilde" unicode="&#xd1;" 
d="M200 100q0 -41 -29.5 -70.5t-70.5 -29.5t-70.5 29.5t-29.5 70.5v1200q0 41 29.5 70.5t70.5 29.5t71 -29q12 -13 19 -27l410 -820v776q0 41 29.5 70.5t70.5 29.5t70.5 -29.5t29.5 -70.5v-1200q0 -41 -29.5 -70.5t-70.5 -29.5t-70 30q-13 12 -20 26l-410 820v-776z
M200 1581q-41 0 -70.5 29.5t-29.5 70.5t29.5 70.5t85 49.5t175.5 -30q102 -41 135.5 -15.5t74.5 25.5t70.5 -29.5t29.5 -70.5t-29.5 -70.5t-90 -54.5t-180.5 25q-112 51 -135.5 25.5t-64.5 -25.5z" />
    <glyph glyph-name="Ograve" unicode="&#xd2;" 
d="M0 1000q0 166 117 283t283 117t283 -117t117 -283v-600q0 -166 -117 -283t-283 -117t-283 117t-117 283v600zM600 1000q0 83 -58.5 141.5t-141.5 58.5t-141.5 -58.5t-58.5 -141.5v-600q0 -83 58.5 -141.5t141.5 -58.5t141.5 58.5t58.5 141.5v600zM209 1636
q-23 33 -15.5 74t40.5 65q34 23 75 15.5t65 -41.5l113 -165q23 -33 15.5 -74t-40.5 -65q-34 -23 -75 -15.5t-65 41.5z" />
    <glyph glyph-name="Oacute" unicode="&#xd3;" 
d="M0 1000q0 166 117 283t283 117t283 -117t117 -283v-600q0 -166 -117 -283t-283 -117t-283 117t-117 283v600zM600 1000q0 83 -58.5 141.5t-141.5 58.5t-141.5 -58.5t-58.5 -141.5v-600q0 -83 58.5 -141.5t141.5 -58.5t141.5 58.5t58.5 141.5v600zM478 1471
q-24 -34 -65 -41.5t-75 15.5q-33 24 -40.5 65t15.5 74l113 165q24 34 65 41.5t75 -15.5q33 -24 40.5 -65t-15.5 -74z" />
    <glyph glyph-name="Ocircumflex" unicode="&#xd4;" 
d="M0 1000q0 166 117 283t283 117t283 -117t117 -283v-600q0 -166 -117 -283t-283 -117t-283 117t-117 283v600zM600 1000q0 83 -58.5 141.5t-141.5 58.5t-141.5 -58.5t-58.5 -141.5v-600q0 -83 58.5 -141.5t141.5 -58.5t141.5 58.5t58.5 141.5v600zM400 1540l-35 -51
q-24 -34 -65 -41.5t-75 15.5q-33 24 -40.5 65t15.5 74l113 165q24 34 65 42q11 2 22 1q11 1 22 -1q41 -8 65 -42l113 -165q23 -33 15.5 -74t-40.5 -65q-34 -23 -75 -15.5t-65 41.5z" />
    <glyph glyph-name="Otilde" unicode="&#xd5;" 
d="M0 1000q0 166 117 283t283 117t283 -117t117 -283v-600q0 -166 -117 -283t-283 -117t-283 117t-117 283v600zM600 1000q0 83 -58.5 141.5t-141.5 58.5t-141.5 -58.5t-58.5 -141.5v-600q0 -83 58.5 -141.5t141.5 -58.5t141.5 58.5t58.5 141.5v600zM200 1581
q-41 0 -70.5 29.5t-29.5 70.5t29.5 70.5t85 49.5t175.5 -30q102 -41 135.5 -15.5t74.5 25.5t70.5 -29.5t29.5 -70.5t-29.5 -70.5t-90 -54.5t-180.5 25q-112 51 -135.5 25.5t-64.5 -25.5z" />
    <glyph glyph-name="Odieresis" unicode="&#xd6;" 
d="M0 1000q0 166 117 283t283 117t283 -117t117 -283v-600q0 -166 -117 -283t-283 -117t-283 117t-117 283v600zM600 1000q0 83 -58.5 141.5t-141.5 58.5t-141.5 -58.5t-58.5 -141.5v-600q0 -83 58.5 -141.5t141.5 -58.5t141.5 58.5t58.5 141.5v600zM270.5 1780.5
q29.5 -29.5 29.5 -70.5t-29.5 -70.5t-70.5 -29.5t-70.5 29.5t-29.5 70.5t29.5 70.5t70.5 29.5t70.5 -29.5zM670.5 1780.5q29.5 -29.5 29.5 -70.5t-29.5 -70.5t-70.5 -29.5t-70.5 29.5t-29.5 70.5t29.5 70.5t70.5 29.5t70.5 -29.5z" />
    <glyph glyph-name="multiply" unicode="&#xd7;" 
d="M400 559l-141 -142q-29 -29 -71 -29t-71 29t-29 71t29 71l142 141l-142 141q-29 29 -29 71t29 71t71 29t71 -29l141 -142l141 142q29 29 71 29t71 -29t29 -71t-29 -71l-142 -141l142 -141q29 -29 29 -71t-29 -71t-71 -29t-71 29z" />
    <glyph glyph-name="Oslash" unicode="&#xd8;" 
d="M0 1000q0 166 117 283t283 117q117 0 209 -58l1 2q7 14 20 27q29 29 70 29t70.5 -29.5t29.5 -70.5q0 -34 -20 -60l1 -2l-26 -51q45 -84 45 -187v-600q0 -166 -117 -283t-283 -117q-117 0 -209 58l-1 -2q-7 -14 -19 -26q-30 -30 -71 -30t-70.5 29.5t-29.5 70.5q0 34 20 60
l-1 2l26 51q-45 84 -45 187v600zM281 239q52 -39 119 -39q83 0 141.5 58.5t58.5 141.5v476zM519 1161q-52 39 -119 39q-83 0 -141.5 -58.5t-58.5 -141.5v-476z" />
    <glyph glyph-name="Ugrave" unicode="&#xd9;" 
d="M600 1300q0 41 29.5 70.5t70.5 29.5t70.5 -29.5t29.5 -70.5v-900q0 -166 -117 -283t-283 -117t-283 117t-117 283v900q0 41 29.5 70.5t70.5 29.5t70.5 -29.5t29.5 -70.5v-900q0 -83 58.5 -141.5t141.5 -58.5t141.5 58.5t58.5 141.5v900zM209 1636q-23 33 -15.5 74
t40.5 65q34 23 75 15.5t65 -41.5l113 -165q23 -33 15.5 -74t-40.5 -65q-34 -23 -75 -15.5t-65 41.5z" />
    <glyph glyph-name="Uacute" unicode="&#xda;" 
d="M600 1300q0 41 29.5 70.5t70.5 29.5t70.5 -29.5t29.5 -70.5v-900q0 -166 -117 -283t-283 -117t-283 117t-117 283v900q0 41 29.5 70.5t70.5 29.5t70.5 -29.5t29.5 -70.5v-900q0 -83 58.5 -141.5t141.5 -58.5t141.5 58.5t58.5 141.5v900zM478 1471q-24 -34 -65 -41.5
t-75 15.5q-33 24 -40.5 65t15.5 74l113 165q24 34 65 41.5t75 -15.5q33 -24 40.5 -65t-15.5 -74z" />
    <glyph glyph-name="Ucircumflex" unicode="&#xdb;" 
d="M600 1300q0 41 29.5 70.5t70.5 29.5t70.5 -29.5t29.5 -70.5v-900q0 -166 -117 -283t-283 -117t-283 117t-117 283v900q0 41 29.5 70.5t70.5 29.5t70.5 -29.5t29.5 -70.5v-900q0 -83 58.5 -141.5t141.5 -58.5t141.5 58.5t58.5 141.5v900zM400 1540l-35 -51
q-24 -34 -65 -41.5t-75 15.5q-33 24 -40.5 65t15.5 74l113 165q24 34 65 42q11 2 22 1q11 1 22 -1q41 -8 65 -42l113 -165q23 -33 15.5 -74t-40.5 -65q-34 -23 -75 -15.5t-65 41.5z" />
    <glyph glyph-name="Udieresis" unicode="&#xdc;" 
d="M600 1300q0 41 29.5 70.5t70.5 29.5t70.5 -29.5t29.5 -70.5v-900q0 -166 -117 -283t-283 -117t-283 117t-117 283v900q0 41 29.5 70.5t70.5 29.5t70.5 -29.5t29.5 -70.5v-900q0 -83 58.5 -141.5t141.5 -58.5t141.5 58.5t58.5 141.5v900zM270.5 1780.5
q29.5 -29.5 29.5 -70.5t-29.5 -70.5t-70.5 -29.5t-70.5 29.5t-29.5 70.5t29.5 70.5t70.5 29.5t70.5 -29.5zM670.5 1780.5q29.5 -29.5 29.5 -70.5t-29.5 -70.5t-70.5 -29.5t-70.5 29.5t-29.5 70.5t29.5 70.5t70.5 29.5t70.5 -29.5z" />
    <glyph glyph-name="Yacute" unicode="&#xdd;" 
d="M300 676l-281 562l1 2q-20 26 -20 60q0 41 29.5 70.5t70.5 29.5t71 -29q12 -13 19 -27l210 -420l210 420q7 14 20 27q29 29 70 29t70.5 -29.5t29.5 -70.5q0 -34 -20 -60l1 -2l-281 -562v-576q0 -41 -29.5 -70.5t-70.5 -29.5t-70.5 29.5t-29.5 70.5v576zM478 1471
q-24 -34 -65 -41.5t-75 15.5q-33 24 -40.5 65t15.5 74l113 165q24 34 65 41.5t75 -15.5q33 -24 40.5 -65t-15.5 -74z" />
    <glyph glyph-name="Thorn" unicode="&#xde;" 
d="M600 600q0 83 -58.5 141.5t-141.5 58.5h-200v-600h200q83 0 141.5 58.5t58.5 141.5v200zM400 1000q166 0 283 -117t117 -283v-200q0 -166 -117 -283t-283 -117h-200v-300q0 -41 -29.5 -70.5t-70.5 -29.5t-70.5 29.5t-29.5 70.5v1600q0 41 29.5 70.5t70.5 29.5t70.5 -29.5
t29.5 -70.5v-300h200z" />
    <glyph glyph-name="germandbls" unicode="&#xdf;" 
d="M400 0q-41 0 -70.5 29.5t-29.5 70.5t29.5 70.5t70.5 29.5q83 0 141.5 58.5t58.5 141.5t-58.5 141.5t-141.5 58.5q-41 0 -70.5 29.5t-29.5 70.5t29.5 70.5t70.5 29.5q83 0 141.5 58.5t58.5 141.5t-58.5 141.5t-141.5 58.5t-141.5 -58.5t-58.5 -141.5v-1000
q0 -41 -29.5 -70.5t-70.5 -29.5t-70.5 29.5t-29.5 70.5v1000q0 166 117 283t283 117t283 -117t117 -283t-117 -283q-9 -9 -18 -17q9 -8 18 -17q117 -117 117 -283t-117 -283t-283 -117z" />
    <glyph glyph-name="agrave" unicode="&#xe0;" 
d="M200 400q0 -83 58.5 -141.5t141.5 -58.5t141.5 58.5t58.5 141.5v200q0 83 -58.5 141.5t-141.5 58.5t-141.5 -58.5t-58.5 -141.5v-200zM609 58q-92 -58 -209 -58q-166 0 -283 117t-117 283v200q0 166 117 283t283 117q117 0 209 -58q7 15 21 29q29 29 70 29t70.5 -29.5
t29.5 -70.5v-800q0 -41 -29.5 -70.5t-70.5 -29.5t-70 30q-14 13 -21 28zM209 1226q-23 33 -15.5 74t40.5 65q34 23 75 15.5t65 -41.5l113 -165q23 -33 15.5 -74t-40.5 -65q-34 -23 -75 -15.5t-65 41.5z" />
    <glyph glyph-name="aacute" unicode="&#xe1;" 
d="M200 400q0 -83 58.5 -141.5t141.5 -58.5t141.5 58.5t58.5 141.5v200q0 83 -58.5 141.5t-141.5 58.5t-141.5 -58.5t-58.5 -141.5v-200zM609 58q-92 -58 -209 -58q-166 0 -283 117t-117 283v200q0 166 117 283t283 117q117 0 209 -58q7 15 21 29q29 29 70 29t70.5 -29.5
t29.5 -70.5v-800q0 -41 -29.5 -70.5t-70.5 -29.5t-70 30q-14 13 -21 28zM478 1061q-24 -34 -65 -41.5t-75 15.5q-33 24 -40.5 65t15.5 74l113 165q24 34 65 41.5t75 -15.5q33 -24 40.5 -65t-15.5 -74z" />
    <glyph glyph-name="acircumflex" unicode="&#xe2;" 
d="M200 400q0 -83 58.5 -141.5t141.5 -58.5t141.5 58.5t58.5 141.5v200q0 83 -58.5 141.5t-141.5 58.5t-141.5 -58.5t-58.5 -141.5v-200zM609 58q-92 -58 -209 -58q-166 0 -283 117t-117 283v200q0 166 117 283t283 117q117 0 209 -58q7 15 21 29q29 29 70 29t70.5 -29.5
t29.5 -70.5v-800q0 -41 -29.5 -70.5t-70.5 -29.5t-70 30q-14 13 -21 28zM400 1130l-35 -51q-24 -34 -65 -41.5t-75 15.5q-33 24 -40.5 65t15.5 74l113 165q24 34 65 42q11 2 22 1q11 1 22 -1q41 -8 65 -42l113 -165q23 -33 15.5 -74t-40.5 -65q-34 -23 -75 -15.5t-65 41.5z
" />
    <glyph glyph-name="atilde" unicode="&#xe3;" 
d="M200 400q0 -83 58.5 -141.5t141.5 -58.5t141.5 58.5t58.5 141.5v200q0 83 -58.5 141.5t-141.5 58.5t-141.5 -58.5t-58.5 -141.5v-200zM609 58q-92 -58 -209 -58q-166 0 -283 117t-117 283v200q0 166 117 283t283 117q117 0 209 -58q7 15 21 29q29 29 70 29t70.5 -29.5
t29.5 -70.5v-800q0 -41 -29.5 -70.5t-70.5 -29.5t-70 30q-14 13 -21 28zM200 1171q-41 0 -70.5 29.5t-29.5 70.5t29.5 70.5t85 49.5t175.5 -30q102 -41 135.5 -15.5t74.5 25.5t70.5 -29.5t29.5 -70.5t-29.5 -70.5t-90 -54.5t-180.5 25q-112 51 -135.5 25.5t-64.5 -25.5z" />
    <glyph glyph-name="adieresis" unicode="&#xe4;" 
d="M200 400q0 -83 58.5 -141.5t141.5 -58.5t141.5 58.5t58.5 141.5v200q0 83 -58.5 141.5t-141.5 58.5t-141.5 -58.5t-58.5 -141.5v-200zM609 58q-92 -58 -209 -58q-166 0 -283 117t-117 283v200q0 166 117 283t283 117q117 0 209 -58q7 15 21 29q29 29 70 29t70.5 -29.5
t29.5 -70.5v-800q0 -41 -29.5 -70.5t-70.5 -29.5t-70 30q-14 13 -21 28zM270.5 1370.5q29.5 -29.5 29.5 -70.5t-29.5 -70.5t-70.5 -29.5t-70.5 29.5t-29.5 70.5t29.5 70.5t70.5 29.5t70.5 -29.5zM670.5 1370.5q29.5 -29.5 29.5 -70.5t-29.5 -70.5t-70.5 -29.5t-70.5 29.5
t-29.5 70.5t29.5 70.5t70.5 29.5t70.5 -29.5z" />
    <glyph glyph-name="aring" unicode="&#xe5;" 
d="M400 1250q-41 0 -70.5 -29.5t-29.5 -70.5t29.5 -70.5t70.5 -29.5t70.5 29.5t29.5 70.5t-29.5 70.5t-70.5 29.5zM200 400q0 -83 58.5 -141.5t141.5 -58.5t141.5 58.5t58.5 141.5v200q0 83 -58.5 141.5t-141.5 58.5t-141.5 -58.5t-58.5 -141.5v-200zM609 58
q-92 -58 -209 -58q-166 0 -283 117t-117 283v200q0 166 117 283q53 53 115 81l-9 9q-73 73 -73 177t73 177t177 73t177 -73t73 -177t-73 -177l-9 -9q21 -9 41 -22q7 15 21 29q29 29 70 29t70.5 -29.5t29.5 -70.5v-800q0 -41 -29.5 -70.5t-70.5 -29.5t-70 30q-14 13 -21 28z
" />
    <glyph glyph-name="ae" unicode="&#xe6;" 
d="M500 774v-174h100q0 83 -58 142q-20 19 -42 32zM300 226v174h-100q0 -83 59 -141q19 -20 41 -33zM400 1000q166 0 283 -117t117 -283v-100q0 -41 -29.5 -70.5t-70.5 -29.5h-200v-174q22 13 42 33l2 2q29 29 70 29t70.5 -29.5t29.5 -70.5t-29 -70q-2 -2 -3 -2l1 -1
q-117 -117 -283 -117t-283 117t-117 283v100q0 41 29.5 70.5t70.5 29.5h200v174q-22 -13 -42 -33l-1 -1q-30 -30 -71 -30t-70.5 29.5t-29.5 70.5t30 71q1 1 2 1l-1 1q117 117 283 117z" />
    <glyph glyph-name="ccedilla" unicode="&#xe7;" 
d="M0 600q0 166 117 283t333 117q196 0 313 -117l-1 -1q1 0 3 -1q29 -30 29 -71t-29.5 -70.5t-70.5 -29.5t-70 30q-1 0 -2 1q-59 59 -172 59q-133 0 -191.5 -58.5t-58.5 -141.5v-200q0 -83 58.5 -141.5t191.5 -58.5q113 0 172 59l2 2q29 29 70 29t70.5 -29.5t29.5 -70.5
t-29 -70q-2 -2 -3 -2l1 -1q-102 -102 -266 -115l-17 -35q100 0 118 -100t-100 -150t-182 50q164 100 64 100t-100 100l24 49q-113 27 -187 101q-117 117 -117 283v200z" />
    <glyph glyph-name="egrave" unicode="&#xe8;" 
d="M0 600q0 166 117 283t283 117t283 -117t117 -283v-100q0 -41 -29.5 -70.5t-70.5 -29.5h-500q0 -83 58.5 -141.5t141.5 -58.5t142 59l2 2q29 29 70 29t70.5 -29.5t29.5 -70.5t-29 -70q-2 -2 -3 -2l1 -1q-117 -117 -283 -117t-283 117t-117 283v200zM600 600
q0 83 -58.5 141.5t-141.5 58.5t-141.5 -58.5t-58.5 -141.5h400zM209 1226q-23 33 -15.5 74t40.5 65q34 23 75 15.5t65 -41.5l113 -165q23 -33 15.5 -74t-40.5 -65q-34 -23 -75 -15.5t-65 41.5z" />
    <glyph glyph-name="eacute" unicode="&#xe9;" 
d="M0 600q0 166 117 283t283 117t283 -117t117 -283v-100q0 -41 -29.5 -70.5t-70.5 -29.5h-500q0 -83 58.5 -141.5t141.5 -58.5t142 59l2 2q29 29 70 29t70.5 -29.5t29.5 -70.5t-29 -70q-2 -2 -3 -2l1 -1q-117 -117 -283 -117t-283 117t-117 283v200zM600 600
q0 83 -58.5 141.5t-141.5 58.5t-141.5 -58.5t-58.5 -141.5h400zM478 1061q-24 -34 -65 -41.5t-75 15.5q-33 24 -40.5 65t15.5 74l113 165q24 34 65 41.5t75 -15.5q33 -24 40.5 -65t-15.5 -74z" />
    <glyph glyph-name="ecircumflex" unicode="&#xea;" 
d="M0 600q0 166 117 283t283 117t283 -117t117 -283v-100q0 -41 -29.5 -70.5t-70.5 -29.5h-500q0 -83 58.5 -141.5t141.5 -58.5t142 59l2 2q29 29 70 29t70.5 -29.5t29.5 -70.5t-29 -70q-2 -2 -3 -2l1 -1q-117 -117 -283 -117t-283 117t-117 283v200zM600 600
q0 83 -58.5 141.5t-141.5 58.5t-141.5 -58.5t-58.5 -141.5h400zM400 1130l-35 -51q-24 -34 -65 -41.5t-75 15.5q-33 24 -40.5 65t15.5 74l113 165q24 34 65 42q11 2 22 1q11 1 22 -1q41 -8 65 -42l113 -165q23 -33 15.5 -74t-40.5 -65q-34 -23 -75 -15.5t-65 41.5z" />
    <glyph glyph-name="edieresis" unicode="&#xeb;" 
d="M0 600q0 166 117 283t283 117t283 -117t117 -283v-100q0 -41 -29.5 -70.5t-70.5 -29.5h-500q0 -83 58.5 -141.5t141.5 -58.5t142 59l2 2q29 29 70 29t70.5 -29.5t29.5 -70.5t-29 -70q-2 -2 -3 -2l1 -1q-117 -117 -283 -117t-283 117t-117 283v200zM600 600
q0 83 -58.5 141.5t-141.5 58.5t-141.5 -58.5t-58.5 -141.5h400zM270.5 1370.5q29.5 -29.5 29.5 -70.5t-29.5 -70.5t-70.5 -29.5t-70.5 29.5t-29.5 70.5t29.5 70.5t70.5 29.5t70.5 -29.5zM670.5 1370.5q29.5 -29.5 29.5 -70.5t-29.5 -70.5t-70.5 -29.5t-70.5 29.5t-29.5 70.5
t29.5 70.5t70.5 29.5t70.5 -29.5z" />
    <glyph glyph-name="igrave" unicode="&#xec;" 
d="M700 200q41 0 70.5 -29.5t29.5 -70.5t-29.5 -70.5t-70.5 -29.5h-600q-41 0 -70.5 29.5t-29.5 70.5t29.5 70.5t70.5 29.5h200v600h-200q-41 0 -70.5 29.5t-29.5 70.5t29.5 70.5t70.5 29.5h300q41 0 70.5 -29.5t29.5 -70.5v-700h200zM209 1226q-23 33 -15.5 74t40.5 65
q34 23 75 15.5t65 -41.5l113 -165q23 -33 15.5 -74t-40.5 -65q-34 -23 -75 -15.5t-65 41.5z" />
    <glyph glyph-name="iacute" unicode="&#xed;" 
d="M700 200q41 0 70.5 -29.5t29.5 -70.5t-29.5 -70.5t-70.5 -29.5h-600q-41 0 -70.5 29.5t-29.5 70.5t29.5 70.5t70.5 29.5h200v600h-200q-41 0 -70.5 29.5t-29.5 70.5t29.5 70.5t70.5 29.5h300q41 0 70.5 -29.5t29.5 -70.5v-700h200zM478 1061q-24 -34 -65 -41.5t-75 15.5
q-33 24 -40.5 65t15.5 74l113 165q24 34 65 41.5t75 -15.5q33 -24 40.5 -65t-15.5 -74z" />
    <glyph glyph-name="icircumflex" unicode="&#xee;" 
d="M700 200q41 0 70.5 -29.5t29.5 -70.5t-29.5 -70.5t-70.5 -29.5h-600q-41 0 -70.5 29.5t-29.5 70.5t29.5 70.5t70.5 29.5h200v600h-200q-41 0 -70.5 29.5t-29.5 70.5t29.5 70.5t70.5 29.5h300q41 0 70.5 -29.5t29.5 -70.5v-700h200zM400 1130l-35 -51q-24 -34 -65 -41.5
t-75 15.5q-33 24 -40.5 65t15.5 74l113 165q24 34 65 42q11 2 22 1q11 1 22 -1q41 -8 65 -42l113 -165q23 -33 15.5 -74t-40.5 -65q-34 -23 -75 -15.5t-65 41.5z" />
    <glyph glyph-name="idieresis" unicode="&#xef;" 
d="M700 200q41 0 70.5 -29.5t29.5 -70.5t-29.5 -70.5t-70.5 -29.5h-600q-41 0 -70.5 29.5t-29.5 70.5t29.5 70.5t70.5 29.5h200v600h-200q-41 0 -70.5 29.5t-29.5 70.5t29.5 70.5t70.5 29.5h300q41 0 70.5 -29.5t29.5 -70.5v-700h200zM270.5 1370.5q29.5 -29.5 29.5 -70.5
t-29.5 -70.5t-70.5 -29.5t-70.5 29.5t-29.5 70.5t29.5 70.5t70.5 29.5t70.5 -29.5zM670.5 1370.5q29.5 -29.5 29.5 -70.5t-29.5 -70.5t-70.5 -29.5t-70.5 29.5t-29.5 70.5t29.5 70.5t70.5 29.5t70.5 -29.5z" />
    <glyph glyph-name="eth" unicode="&#xf0;" 
d="M200 400q0 -83 58.5 -141.5t141.5 -58.5t141.5 58.5t58.5 141.5v101q0 82 -58 141q-59 58 -142 58t-141.5 -58.5t-58.5 -141.5v-100zM800 400q0 -166 -117 -283t-283 -117t-283 117t-117 283v100q0 166 117 283t283 117q111 0 200 -52v152q0 35 -10 65l-87 -67
q-32 -25 -73.5 -19.5t-66.5 37.5t-20 73.5t38 66.5l48 38q-35 6 -79 6q-113 0 -172 -59l-1 -1q-30 -30 -71 -30t-70.5 29.5t-29.5 70.5t30 71q1 1 2 1l-1 1q117 117 313 117q158 0 264 -63l83 65q32 25 73.5 19.5t66.5 -37.5t20 -73.5t-38 -66.5l-67 -52q48 -86 48 -192
v-600z" />
    <glyph glyph-name="ntilde" unicode="&#xf1;" 
d="M200 100q0 -41 -29.5 -70.5t-70.5 -29.5t-70.5 29.5t-29.5 70.5v800q0 41 29.5 70.5t70.5 29.5t71 -29q13 -14 20 -29q92 58 209 58q166 0 283 -117t117 -283v-500q0 -41 -29.5 -70.5t-70.5 -29.5t-70.5 29.5t-29.5 70.5v500q0 83 -58.5 141.5t-141.5 58.5t-141.5 -58.5
t-58.5 -141.5v-500zM200 1171q-41 0 -70.5 29.5t-29.5 70.5t29.5 70.5t85 49.5t175.5 -30q102 -41 135.5 -15.5t74.5 25.5t70.5 -29.5t29.5 -70.5t-29.5 -70.5t-90 -54.5t-180.5 25q-112 51 -135.5 25.5t-64.5 -25.5z" />
    <glyph glyph-name="ograve" unicode="&#xf2;" 
d="M0 600q0 166 117 283t283 117t283 -117t117 -283v-200q0 -166 -117 -283t-283 -117t-283 117t-117 283v200zM600 600q0 83 -58.5 141.5t-141.5 58.5t-141.5 -58.5t-58.5 -141.5v-200q0 -83 58.5 -141.5t141.5 -58.5t141.5 58.5t58.5 141.5v200zM209 1226q-23 33 -15.5 74
t40.5 65q34 23 75 15.5t65 -41.5l113 -165q23 -33 15.5 -74t-40.5 -65q-34 -23 -75 -15.5t-65 41.5z" />
    <glyph glyph-name="oacute" unicode="&#xf3;" 
d="M0 600q0 166 117 283t283 117t283 -117t117 -283v-200q0 -166 -117 -283t-283 -117t-283 117t-117 283v200zM600 600q0 83 -58.5 141.5t-141.5 58.5t-141.5 -58.5t-58.5 -141.5v-200q0 -83 58.5 -141.5t141.5 -58.5t141.5 58.5t58.5 141.5v200zM478 1061
q-24 -34 -65 -41.5t-75 15.5q-33 24 -40.5 65t15.5 74l113 165q24 34 65 41.5t75 -15.5q33 -24 40.5 -65t-15.5 -74z" />
    <glyph glyph-name="ocircumflex" unicode="&#xf4;" 
d="M0 600q0 166 117 283t283 117t283 -117t117 -283v-200q0 -166 -117 -283t-283 -117t-283 117t-117 283v200zM600 600q0 83 -58.5 141.5t-141.5 58.5t-141.5 -58.5t-58.5 -141.5v-200q0 -83 58.5 -141.5t141.5 -58.5t141.5 58.5t58.5 141.5v200zM400 1130l-35 -51
q-24 -34 -65 -41.5t-75 15.5q-33 24 -40.5 65t15.5 74l113 165q24 34 65 42q11 2 22 1q11 1 22 -1q41 -8 65 -42l113 -165q23 -33 15.5 -74t-40.5 -65q-34 -23 -75 -15.5t-65 41.5z" />
    <glyph glyph-name="otilde" unicode="&#xf5;" 
d="M0 600q0 166 117 283t283 117t283 -117t117 -283v-200q0 -166 -117 -283t-283 -117t-283 117t-117 283v200zM600 600q0 83 -58.5 141.5t-141.5 58.5t-141.5 -58.5t-58.5 -141.5v-200q0 -83 58.5 -141.5t141.5 -58.5t141.5 58.5t58.5 141.5v200zM200 1171
q-41 0 -70.5 29.5t-29.5 70.5t29.5 70.5t85 49.5t175.5 -30q102 -41 135.5 -15.5t74.5 25.5t70.5 -29.5t29.5 -70.5t-29.5 -70.5t-90 -54.5t-180.5 25q-112 51 -135.5 25.5t-64.5 -25.5z" />
    <glyph glyph-name="odieresis" unicode="&#xf6;" 
d="M0 600q0 166 117 283t283 117t283 -117t117 -283v-200q0 -166 -117 -283t-283 -117t-283 117t-117 283v200zM600 600q0 83 -58.5 141.5t-141.5 58.5t-141.5 -58.5t-58.5 -141.5v-200q0 -83 58.5 -141.5t141.5 -58.5t141.5 58.5t58.5 141.5v200zM270.5 1370.5
q29.5 -29.5 29.5 -70.5t-29.5 -70.5t-70.5 -29.5t-70.5 29.5t-29.5 70.5t29.5 70.5t70.5 29.5t70.5 -29.5zM670.5 1370.5q29.5 -29.5 29.5 -70.5t-29.5 -70.5t-70.5 -29.5t-70.5 29.5t-29.5 70.5t29.5 70.5t70.5 29.5t70.5 -29.5z" />
    <glyph glyph-name="divide" unicode="&#xf7;" 
d="M100 600q-41 0 -70.5 29.5t-29.5 70.5t29.5 70.5t70.5 29.5h600q41 0 70.5 -29.5t29.5 -70.5t-29.5 -70.5t-70.5 -29.5h-600zM470.5 1070.5q29.5 -29.5 29.5 -70.5t-29.5 -70.5t-70.5 -29.5t-70.5 29.5t-29.5 70.5t29.5 70.5t70.5 29.5t70.5 -29.5zM470.5 470.5
q29.5 -29.5 29.5 -70.5t-29.5 -70.5t-70.5 -29.5t-70.5 29.5t-29.5 70.5t29.5 70.5t70.5 29.5t70.5 -29.5z" />
    <glyph glyph-name="oslash" unicode="&#xf8;" 
d="M600 609l-288 -389q40 -20 88 -20q83 0 141.5 58.5t58.5 141.5v209zM480 784q-37 16 -80 16q-83 0 -141.5 -58.5t-58.5 -141.5v-194zM0 600q0 166 117 283t283 117q111 0 201 -53l13 18q10 13 24 23q34 24 74 17q41 -7 65 -41t17 -75q-6 -33 -31 -55l1 -3l-19 -26
q55 -91 55 -205v-200q0 -166 -117 -283t-283 -117q-116 0 -209 57l-11 -15q-10 -13 -24 -23q-34 -24 -74 -17q-41 7 -65 41t-17 75q6 33 31 55l-1 3l20 27q-50 88 -50 197v200z" />
    <glyph glyph-name="ugrave" unicode="&#xf9;" 
d="M600 900q0 41 29.5 70.5t70.5 29.5t70.5 -29.5t29.5 -70.5v-800q0 -41 -29.5 -70.5t-70.5 -29.5t-70 30q-14 13 -21 28q-92 -58 -209 -58q-166 0 -283 117t-117 283v500q0 41 29.5 70.5t70.5 29.5t70.5 -29.5t29.5 -70.5v-500q0 -83 58.5 -141.5t141.5 -58.5t141.5 58.5
t58.5 141.5v500zM209 1226q-23 33 -15.5 74t40.5 65q34 23 75 15.5t65 -41.5l113 -165q23 -33 15.5 -74t-40.5 -65q-34 -23 -75 -15.5t-65 41.5z" />
    <glyph glyph-name="uacute" unicode="&#xfa;" 
d="M600 900q0 41 29.5 70.5t70.5 29.5t70.5 -29.5t29.5 -70.5v-800q0 -41 -29.5 -70.5t-70.5 -29.5t-70 30q-14 13 -21 28q-92 -58 -209 -58q-166 0 -283 117t-117 283v500q0 41 29.5 70.5t70.5 29.5t70.5 -29.5t29.5 -70.5v-500q0 -83 58.5 -141.5t141.5 -58.5t141.5 58.5
t58.5 141.5v500zM478 1061q-24 -34 -65 -41.5t-75 15.5q-33 24 -40.5 65t15.5 74l113 165q24 34 65 41.5t75 -15.5q33 -24 40.5 -65t-15.5 -74z" />
    <glyph glyph-name="ucircumflex" unicode="&#xfb;" 
d="M600 900q0 41 29.5 70.5t70.5 29.5t70.5 -29.5t29.5 -70.5v-800q0 -41 -29.5 -70.5t-70.5 -29.5t-70 30q-14 13 -21 28q-92 -58 -209 -58q-166 0 -283 117t-117 283v500q0 41 29.5 70.5t70.5 29.5t70.5 -29.5t29.5 -70.5v-500q0 -83 58.5 -141.5t141.5 -58.5t141.5 58.5
t58.5 141.5v500zM400 1130l-35 -51q-24 -34 -65 -41.5t-75 15.5q-33 24 -40.5 65t15.5 74l113 165q24 34 65 42q11 2 22 1q11 1 22 -1q41 -8 65 -42l113 -165q23 -33 15.5 -74t-40.5 -65q-34 -23 -75 -15.5t-65 41.5z" />
    <glyph glyph-name="udieresis" unicode="&#xfc;" 
d="M600 900q0 41 29.5 70.5t70.5 29.5t70.5 -29.5t29.5 -70.5v-800q0 -41 -29.5 -70.5t-70.5 -29.5t-70 30q-14 13 -21 28q-92 -58 -209 -58q-166 0 -283 117t-117 283v500q0 41 29.5 70.5t70.5 29.5t70.5 -29.5t29.5 -70.5v-500q0 -83 58.5 -141.5t141.5 -58.5t141.5 58.5
t58.5 141.5v500zM270.5 1370.5q29.5 -29.5 29.5 -70.5t-29.5 -70.5t-70.5 -29.5t-70.5 29.5t-29.5 70.5t29.5 70.5t70.5 29.5t70.5 -29.5zM670.5 1370.5q29.5 -29.5 29.5 -70.5t-29.5 -70.5t-70.5 -29.5t-70.5 29.5t-29.5 70.5t29.5 70.5t70.5 29.5t70.5 -29.5z" />
    <glyph glyph-name="yacute" unicode="&#xfd;" 
d="M600 900q0 41 29.5 70.5t70.5 29.5t70.5 -29.5t29.5 -70.5v-900q0 -166 -117 -283t-333 -117q-196 0 -313 117l1 1q-1 0 -2 2q-30 29 -30 70t29.5 70.5t70.5 29.5t71 -29q0 -1 1 -2q59 -59 172 -59q133 0 191.5 58.5t58.5 141.5v52q-89 -52 -200 -52q-166 0 -283 117
t-117 283v500q0 41 29.5 70.5t70.5 29.5t70.5 -29.5t29.5 -70.5v-500q0 -83 58.5 -141.5t141.5 -58.5t141.5 58.5t58.5 141.5v500zM478 1061q-24 -34 -65 -41.5t-75 15.5q-33 24 -40.5 65t15.5 74l113 165q24 34 65 41.5t75 -15.5q33 -24 40.5 -65t-15.5 -74z" />
    <glyph glyph-name="thorn" unicode="&#xfe;" 
d="M200 600v-200q0 -83 58.5 -141.5t141.5 -58.5t141.5 58.5t58.5 141.5v200q0 83 -58.5 141.5t-141.5 58.5t-141.5 -58.5t-58.5 -141.5zM0 1300q0 41 29.5 70.5t70.5 29.5t70.5 -29.5t29.5 -70.5v-352q89 52 200 52q166 0 283 -117t117 -283v-200q0 -166 -117 -283
t-283 -117q-111 0 -200 52v-352q0 -41 -29.5 -70.5t-70.5 -29.5t-70.5 29.5t-29.5 70.5v1600z" />
    <glyph glyph-name="ydieresis" unicode="&#xff;" 
d="M600 900q0 41 29.5 70.5t70.5 29.5t70.5 -29.5t29.5 -70.5v-900q0 -166 -117 -283t-333 -117q-196 0 -313 117l1 1q-1 0 -2 2q-30 29 -30 70t29.5 70.5t70.5 29.5t71 -29q0 -1 1 -2q59 -59 172 -59q133 0 191.5 58.5t58.5 141.5v52q-89 -52 -200 -52q-166 0 -283 117
t-117 283v500q0 41 29.5 70.5t70.5 29.5t70.5 -29.5t29.5 -70.5v-500q0 -83 58.5 -141.5t141.5 -58.5t141.5 58.5t58.5 141.5v500zM270.5 1370.5q29.5 -29.5 29.5 -70.5t-29.5 -70.5t-70.5 -29.5t-70.5 29.5t-29.5 70.5t29.5 70.5t70.5 29.5t70.5 -29.5zM670.5 1370.5
q29.5 -29.5 29.5 -70.5t-29.5 -70.5t-70.5 -29.5t-70.5 29.5t-29.5 70.5t29.5 70.5t70.5 29.5t70.5 -29.5z" />
    <glyph glyph-name="dotlessi" unicode="&#x131;" 
d="M700 200q41 0 70.5 -29.5t29.5 -70.5t-29.5 -70.5t-70.5 -29.5h-600q-41 0 -70.5 29.5t-29.5 70.5t29.5 70.5t70.5 29.5h200v600h-200q-41 0 -70.5 29.5t-29.5 70.5t29.5 70.5t70.5 29.5h300q41 0 70.5 -29.5t29.5 -70.5v-700h200z" />
    <glyph glyph-name="circumflex" unicode="&#x2c6;" 
d="M402 1130l-35 -51q-24 -34 -65 -41.5t-75 15.5q-33 24 -40.5 65t15.5 74l113 165q24 34 65 42q11 2 22 1q11 1 22 -1q41 -8 65 -42l113 -165q23 -33 15.5 -74t-40.5 -65q-34 -23 -75 -15.5t-65 41.5z" />
    <glyph glyph-name="caron" unicode="&#x2c7;" 
d="M437 1357q24 34 65 41.5t75 -15.5q33 -24 40.5 -65t-15.5 -74l-113 -165q-24 -34 -65 -41q-11 -3 -22 -2q-11 -1 -22 2q-41 7 -65 41l-113 165q-23 33 -15.5 74t40.5 65q34 23 75 15.5t65 -41.5l35 -51z" />
    <glyph glyph-name="ring" unicode="&#x2da;" 
d="M577 1327q73 -73 73 -177t-73 -177t-177 -73t-177 73t-73 177t73 177t177 73t177 -73zM400 1250q-41 0 -70.5 -29.5t-29.5 -70.5t29.5 -70.5t70.5 -29.5t70.5 29.5t29.5 70.5t-29.5 70.5t-70.5 29.5z" />
    <glyph glyph-name="ogonek" unicode="&#x2db;" 
d="M500 167l100 -200q0 -100 -100 -100t64 -100q-64 -100 -182 -50t-100 150t118 100l-100 200h200z" />
    <glyph glyph-name="tilde" unicode="&#x2dc;" 
d="M200 1171q-41 0 -70.5 29.5t-29.5 70.5t29.5 70.5t85 49.5t175.5 -30q102 -41 135.5 -15.5t74.5 25.5t70.5 -29.5t29.5 -70.5t-29.5 -70.5t-90 -54.5t-180.5 25q-112 51 -135.5 25.5t-64.5 -25.5z" />
    <glyph glyph-name="endash" unicode="&#x2013;" 
d="M100 600q-41 0 -70.5 29.5t-29.5 70.5t29.5 70.5t70.5 29.5h600q41 0 70.5 -29.5t29.5 -70.5t-29.5 -70.5t-70.5 -29.5h-600z" />
    <glyph glyph-name="emdash" unicode="&#x2014;" 
d="M100 600q-41 0 -70.5 29.5t-29.5 70.5t29.5 70.5t70.5 29.5h600q41 0 70.5 -29.5t29.5 -70.5t-29.5 -70.5t-70.5 -29.5h-600z" />
    <glyph glyph-name="quoteleft" unicode="&#x2018;" 
d="M500 1200v-100q0 -41 -29.5 -70.5t-70.5 -29.5t-70.5 29.5t-29.5 70.5v200q0 41 29.5 70.5t70.5 29.5t70.5 -29.5t29.5 -70.5q-42 0 -50 -100h50z" />
    <glyph glyph-name="quoteright" unicode="&#x2019;" 
d="M300 1200v100q0 41 29.5 70.5t70.5 29.5t70.5 -29.5t29.5 -70.5v-200q0 -41 -29.5 -70.5t-70.5 -29.5t-70.5 29.5t-29.5 70.5q42 0 50 100h-50z" />
    <glyph glyph-name="quotesinglbase" unicode="&#x201a;" 
d="M300 0v100q0 41 29.5 70.5t70.5 29.5t70.5 -29.5t29.5 -70.5v-200q0 -41 -29.5 -70.5t-70.5 -29.5t-70.5 29.5t-29.5 70.5q42 0 50 100h-50z" />
    <glyph glyph-name="quotedblleft" unicode="&#x201c;" 
d="M370 1200v-100q0 -41 -29.5 -70.5t-70.5 -29.5t-70.5 29.5t-29.5 70.5v200q0 41 29.5 70.5t70.5 29.5t70.5 -29.5t29.5 -70.5q-42 0 -50 -100h50zM630 1200v-100q0 -41 -29.5 -70.5t-70.5 -29.5t-70.5 29.5t-29.5 70.5v200q0 41 29.5 70.5t70.5 29.5t70.5 -29.5
t29.5 -70.5q-42 0 -50 -100h50z" />
    <glyph glyph-name="quotedblright" unicode="&#x201d;" 
d="M430 1200v100q0 41 29.5 70.5t70.5 29.5t70.5 -29.5t29.5 -70.5v-200q0 -41 -29.5 -70.5t-70.5 -29.5t-70.5 29.5t-29.5 70.5q42 0 50 100h-50zM170 1200v100q0 41 29.5 70.5t70.5 29.5t70.5 -29.5t29.5 -70.5v-200q0 -41 -29.5 -70.5t-70.5 -29.5t-70.5 29.5t-29.5 70.5
q42 0 50 100h-50z" />
    <glyph glyph-name="quotedblbase" unicode="&#x201e;" 
d="M430 0v100q0 41 29.5 70.5t70.5 29.5t70.5 -29.5t29.5 -70.5v-200q0 -41 -29.5 -70.5t-70.5 -29.5t-70.5 29.5t-29.5 70.5q42 0 50 100h-50zM170 0v100q0 41 29.5 70.5t70.5 29.5t70.5 -29.5t29.5 -70.5v-200q0 -41 -29.5 -70.5t-70.5 -29.5t-70.5 29.5t-29.5 70.5
q42 0 50 100h-50z" />
    <glyph glyph-name="bullet" unicode="&#x2022;" 
d="M541.5 841.5q58.5 -58.5 58.5 -141.5t-58.5 -141.5t-141.5 -58.5t-141.5 58.5t-58.5 141.5t58.5 141.5t141.5 58.5t141.5 -58.5z" />
    <glyph glyph-name="ellipsis" unicode="&#x2026;" 
d="M170.5 170.5q29.5 -29.5 29.5 -70.5t-29.5 -70.5t-70.5 -29.5t-70.5 29.5t-29.5 70.5t29.5 70.5t70.5 29.5t70.5 -29.5zM470.5 170.5q29.5 -29.5 29.5 -70.5t-29.5 -70.5t-70.5 -29.5t-70.5 29.5t-29.5 70.5t29.5 70.5t70.5 29.5t70.5 -29.5zM770.5 170.5
q29.5 -29.5 29.5 -70.5t-29.5 -70.5t-70.5 -29.5t-70.5 29.5t-29.5 70.5t29.5 70.5t70.5 29.5t70.5 -29.5z" />
    <glyph glyph-name="lira" unicode="&#x20a4;" 
d="M100 200v250q-41 0 -70.5 29.5t-29.5 70.5t29.5 70.5t70.5 29.5v100q-41 0 -70.5 29.5t-29.5 70.5t29.5 70.5t70.5 29.5v50q0 166 117 283t283 117q146 0 263 -117l-1 -1q1 0 3 -1q29 -30 29 -71t-29.5 -70.5t-70.5 -29.5t-70 30q-1 0 -2 1q-59 59 -122 59
q-83 0 -141.5 -58.5t-58.5 -141.5v-50h350q41 0 70.5 -29.5t29.5 -70.5t-29.5 -70.5t-70.5 -29.5h-350v-100h350q41 0 70.5 -29.5t29.5 -70.5t-29.5 -70.5t-70.5 -29.5h-350v-250h400q41 0 70.5 -29.5t29.5 -70.5t-29.5 -70.5t-70.5 -29.5h-600q-41 0 -70.5 29.5t-29.5 70.5
t29.5 70.5t70.5 29.5z" />
    <glyph glyph-name="Euro" unicode="&#x20ac;" 
d="M300 400q0 -83 58.5 -141.5t141.5 -58.5q63 0 122 59l2 2q29 29 70 29t70.5 -29.5t29.5 -70.5t-29 -70q-2 -2 -3 -2l1 -1q-117 -117 -263 -117q-166 0 -283 117t-117 283v50q-41 0 -70.5 29.5t-29.5 70.5t29.5 70.5t70.5 29.5v100q-41 0 -70.5 29.5t-29.5 70.5t29.5 70.5
t70.5 29.5v50q0 166 117 283t283 117q146 0 263 -117l-1 -1q1 0 3 -1q29 -30 29 -71t-29.5 -70.5t-70.5 -29.5t-70 30q-1 0 -2 1q-59 59 -122 59q-83 0 -141.5 -58.5t-58.5 -141.5v-50h350q41 0 70.5 -29.5t29.5 -70.5t-29.5 -70.5t-70.5 -29.5h-350v-100h350
q41 0 70.5 -29.5t29.5 -70.5t-29.5 -70.5t-70.5 -29.5h-350v-50z" />
    <glyph glyph-name="uni2116" unicode="&#x2116;" 
d="M650 1300q-21 0 -35.5 -14.5t-14.5 -35.5t14.5 -35.5t35.5 -14.5t35.5 14.5t14.5 35.5t-14.5 35.5t-35.5 14.5zM200 100q0 -41 -29.5 -70.5t-70.5 -29.5t-70.5 29.5t-29.5 70.5v1200q0 41 29.5 70.5t70.5 29.5t71 -29q12 -13 19 -27l110 -444v400q0 41 29.5 70.5
t70.5 29.5t70.5 -29.5t29.5 -70.5v-1200q0 -41 -29.5 -70.5t-70.5 -29.5t-70 30q-13 12 -20 26l-110 444v-400zM800 1250q0 -62 -44 -106t-106 -44t-106 44t-44 106t44 106t106 44t106 -44t44 -106z" />
    <glyph glyph-name="approxequal" unicode="&#x2248;" 
d="M100 760q-41 0 -70.5 29.5t-29.5 70.5t29.5 70.5t120 59.5t240.5 -40q132 -61 200.5 -25.5t109.5 35.5t70.5 -29.5t29.5 -70.5t-29.5 -70.5t-125 -64.5t-245.5 35q-142 71 -200.5 35.5t-99.5 -35.5zM100 440q-41 0 -70.5 29.5t-29.5 70.5t29.5 70.5t120 59.5t240.5 -40
q132 -61 200.5 -25.5t109.5 35.5t70.5 -29.5t29.5 -70.5t-29.5 -70.5t-125 -64.5t-245.5 35q-142 71 -200.5 35.5t-99.5 -35.5z" />
  </font>
</defs>
</svg>
